<svg width="1728" height="330" viewBox="0 0 1728 330" fill="none" xmlns="http://www.w3.org/2000/svg">
<g clip-path="url(#clip0_113_1677)">
<rect width="1728" height="330" fill="url(#paint0_linear_113_1677)"/>
<g filter="url(#filter0_f_113_1677)">
<path d="M-0.493262 188.403C141.425 215.028 472.992 259.52 663.918 224.491C902.576 180.706 955.598 83.8885 1285.91 79.513C1616.21 75.1374 1741.45 108.192 1876.3 29.5383" stroke="white" stroke-width="0.25"/>
</g>
<g filter="url(#filter1_f_113_1677)">
<path d="M11.2155 -119.878C142.439 -59.6288 453.317 63.9506 647.038 76.2734C889.189 91.6768 964.11 10.6098 1285.62 86.4748C1607.12 162.34 1720.6 224.781 1870.5 181.18" stroke="white" stroke-width="0.25"/>
</g>
<g filter="url(#filter2_f_113_1677)">
<path d="M1803.15 47.1134C1665.4 90.41 1341.47 173.979 1147.73 161.881C905.561 146.759 841.411 56.9271 512.923 91.8245C184.434 126.722 64.0141 174.421 -79.2217 112.345" stroke="white" stroke-width="0.25"/>
</g>
<rect opacity="0.75" width="1728" height="375" fill="url(#paint1_linear_113_1677)"/>
<path d="M627.347 98.728V115.936C627.347 118.6 626.591 120.652 625.079 122.092C623.591 123.532 621.575 124.252 619.031 124.252C616.367 124.252 614.231 123.496 612.623 121.984C611.015 120.472 610.211 118.324 610.211 115.54H616.331C616.331 116.596 616.547 117.4 616.979 117.952C617.411 118.48 618.035 118.744 618.851 118.744C619.595 118.744 620.171 118.504 620.579 118.024C620.987 117.544 621.191 116.848 621.191 115.936V98.728H627.347ZM631.096 113.92C631.096 111.856 631.48 110.044 632.248 108.484C633.04 106.924 634.108 105.724 635.452 104.884C636.796 104.044 638.296 103.624 639.952 103.624C641.368 103.624 642.604 103.912 643.66 104.488C644.74 105.064 645.568 105.82 646.144 106.756V103.912H652.3V124H646.144V121.156C645.544 122.092 644.704 122.848 643.624 123.424C642.568 124 641.332 124.288 639.916 124.288C638.284 124.288 636.796 123.868 635.452 123.028C634.108 122.164 633.04 120.952 632.248 119.392C631.48 117.808 631.096 115.984 631.096 113.92ZM646.144 113.956C646.144 112.42 645.712 111.208 644.848 110.32C644.008 109.432 642.976 108.988 641.752 108.988C640.528 108.988 639.484 109.432 638.62 110.32C637.78 111.184 637.36 112.384 637.36 113.92C637.36 115.456 637.78 116.68 638.62 117.592C639.484 118.48 640.528 118.924 641.752 118.924C642.976 118.924 644.008 118.48 644.848 117.592C645.712 116.704 646.144 115.492 646.144 113.956ZM646.612 98.908L637.936 102.544V98.296L646.612 94.12V98.908ZM672.554 124.288C670.802 124.288 669.242 123.988 667.874 123.388C666.506 122.788 665.426 121.972 664.634 120.94C663.842 119.884 663.398 118.708 663.302 117.412H669.386C669.458 118.108 669.782 118.672 670.358 119.104C670.934 119.536 671.642 119.752 672.482 119.752C673.25 119.752 673.838 119.608 674.246 119.32C674.678 119.008 674.894 118.612 674.894 118.132C674.894 117.556 674.594 117.136 673.994 116.872C673.394 116.584 672.422 116.272 671.078 115.936C669.638 115.6 668.438 115.252 667.478 114.892C666.518 114.508 665.69 113.92 664.994 113.128C664.298 112.312 663.95 111.22 663.95 109.852C663.95 108.7 664.262 107.656 664.886 106.72C665.534 105.76 666.47 105.004 667.694 104.452C668.942 103.9 670.418 103.624 672.122 103.624C674.642 103.624 676.622 104.248 678.062 105.496C679.526 106.744 680.366 108.4 680.582 110.464H674.894C674.798 109.768 674.486 109.216 673.958 108.808C673.454 108.4 672.782 108.196 671.942 108.196C671.222 108.196 670.67 108.34 670.286 108.628C669.902 108.892 669.71 109.264 669.71 109.744C669.71 110.32 670.01 110.752 670.61 111.04C671.234 111.328 672.194 111.616 673.49 111.904C674.978 112.288 676.19 112.672 677.126 113.056C678.062 113.416 678.878 114.016 679.574 114.856C680.294 115.672 680.666 116.776 680.69 118.168C680.69 119.344 680.354 120.4 679.682 121.336C679.034 122.248 678.086 122.968 676.838 123.496C675.614 124.024 674.186 124.288 672.554 124.288ZM683.233 113.92C683.233 111.856 683.617 110.044 684.385 108.484C685.177 106.924 686.245 105.724 687.589 104.884C688.933 104.044 690.433 103.624 692.089 103.624C693.505 103.624 694.741 103.912 695.797 104.488C696.877 105.064 697.705 105.82 698.281 106.756V103.912H704.437V124H698.281V121.156C697.681 122.092 696.841 122.848 695.761 123.424C694.705 124 693.469 124.288 692.053 124.288C690.421 124.288 688.933 123.868 687.589 123.028C686.245 122.164 685.177 120.952 684.385 119.392C683.617 117.808 683.233 115.984 683.233 113.92ZM698.281 113.956C698.281 112.42 697.849 111.208 696.985 110.32C696.145 109.432 695.113 108.988 693.889 108.988C692.665 108.988 691.621 109.432 690.757 110.32C689.917 111.184 689.497 112.384 689.497 113.92C689.497 115.456 689.917 116.68 690.757 117.592C691.621 118.48 692.665 118.924 693.889 118.924C695.113 118.924 696.145 118.48 696.985 117.592C697.849 116.704 698.281 115.492 698.281 113.956ZM715.046 106.756C715.622 105.82 716.45 105.064 717.53 104.488C718.61 103.912 719.846 103.624 721.238 103.624C722.894 103.624 724.394 104.044 725.738 104.884C727.082 105.724 728.138 106.924 728.906 108.484C729.698 110.044 730.094 111.856 730.094 113.92C730.094 115.984 729.698 117.808 728.906 119.392C728.138 120.952 727.082 122.164 725.738 123.028C724.394 123.868 722.894 124.288 721.238 124.288C719.822 124.288 718.586 124.012 717.53 123.46C716.474 122.884 715.646 122.128 715.046 121.192V124H708.89V97.36H715.046V106.756ZM723.83 113.92C723.83 112.384 723.398 111.184 722.534 110.32C721.694 109.432 720.65 108.988 719.402 108.988C718.178 108.988 717.134 109.432 716.27 110.32C715.43 111.208 715.01 112.42 715.01 113.956C715.01 115.492 715.43 116.704 716.27 117.592C717.134 118.48 718.178 118.924 719.402 118.924C720.626 118.924 721.67 118.48 722.534 117.592C723.398 116.68 723.83 115.456 723.83 113.92ZM752.26 113.632C752.26 114.208 752.224 114.808 752.152 115.432H738.22C738.316 116.68 738.712 117.64 739.408 118.312C740.128 118.96 741.004 119.284 742.036 119.284C743.572 119.284 744.64 118.636 745.24 117.34H751.792C751.456 118.66 750.844 119.848 749.956 120.904C749.092 121.96 748 122.788 746.68 123.388C745.36 123.988 743.884 124.288 742.252 124.288C740.284 124.288 738.532 123.868 736.996 123.028C735.46 122.188 734.26 120.988 733.396 119.428C732.532 117.868 732.1 116.044 732.1 113.956C732.1 111.868 732.52 110.044 733.36 108.484C734.224 106.924 735.424 105.724 736.96 104.884C738.496 104.044 740.26 103.624 742.252 103.624C744.196 103.624 745.924 104.032 747.436 104.848C748.948 105.664 750.124 106.828 750.964 108.34C751.828 109.852 752.26 111.616 752.26 113.632ZM745.96 112.012C745.96 110.956 745.6 110.116 744.88 109.492C744.16 108.868 743.26 108.556 742.18 108.556C741.148 108.556 740.272 108.856 739.552 109.456C738.856 110.056 738.424 110.908 738.256 112.012H745.96ZM769.292 106.756C769.892 105.82 770.72 105.064 771.776 104.488C772.832 103.912 774.068 103.624 775.484 103.624C777.14 103.624 778.64 104.044 779.984 104.884C781.328 105.724 782.384 106.924 783.152 108.484C783.944 110.044 784.34 111.856 784.34 113.92C784.34 115.984 783.944 117.808 783.152 119.392C782.384 120.952 781.328 122.164 779.984 123.028C778.64 123.868 777.14 124.288 775.484 124.288C774.092 124.288 772.856 124 771.776 123.424C770.72 122.848 769.892 122.104 769.292 121.192V133.576H763.136V103.912H769.292V106.756ZM778.076 113.92C778.076 112.384 777.644 111.184 776.78 110.32C775.94 109.432 774.896 108.988 773.648 108.988C772.424 108.988 771.38 109.432 770.516 110.32C769.676 111.208 769.256 112.42 769.256 113.956C769.256 115.492 769.676 116.704 770.516 117.592C771.38 118.48 772.424 118.924 773.648 118.924C774.872 118.924 775.916 118.48 776.78 117.592C777.644 116.68 778.076 115.456 778.076 113.92ZM796.714 124.288C794.746 124.288 792.97 123.868 791.386 123.028C789.826 122.188 788.59 120.988 787.678 119.428C786.79 117.868 786.346 116.044 786.346 113.956C786.346 111.892 786.802 110.08 787.714 108.52C788.626 106.936 789.874 105.724 791.458 104.884C793.042 104.044 794.818 103.624 796.786 103.624C798.754 103.624 800.53 104.044 802.114 104.884C803.698 105.724 804.946 106.936 805.858 108.52C806.77 110.08 807.226 111.892 807.226 113.956C807.226 116.02 806.758 117.844 805.822 119.428C804.91 120.988 803.65 122.188 802.042 123.028C800.458 123.868 798.682 124.288 796.714 124.288ZM796.714 118.96C797.89 118.96 798.886 118.528 799.702 117.664C800.542 116.8 800.962 115.564 800.962 113.956C800.962 112.348 800.554 111.112 799.738 110.248C798.946 109.384 797.962 108.952 796.786 108.952C795.586 108.952 794.59 109.384 793.798 110.248C793.006 111.088 792.61 112.324 792.61 113.956C792.61 115.564 792.994 116.8 793.762 117.664C794.554 118.528 795.538 118.96 796.714 118.96ZM816.648 107.26C817.368 106.156 818.268 105.292 819.348 104.668C820.428 104.02 821.628 103.696 822.948 103.696V110.212H821.256C819.72 110.212 818.568 110.548 817.8 111.22C817.032 111.868 816.648 113.02 816.648 114.676V124H810.492V103.912H816.648V107.26ZM842.663 124.288C840.695 124.288 838.919 123.868 837.335 123.028C835.775 122.188 834.539 120.988 833.627 119.428C832.739 117.868 832.295 116.044 832.295 113.956C832.295 111.892 832.751 110.08 833.663 108.52C834.575 106.936 835.823 105.724 837.407 104.884C838.991 104.044 840.767 103.624 842.735 103.624C844.703 103.624 846.479 104.044 848.063 104.884C849.647 105.724 850.895 106.936 851.807 108.52C852.719 110.08 853.175 111.892 853.175 113.956C853.175 116.02 852.707 117.844 851.771 119.428C850.859 120.988 849.599 122.188 847.991 123.028C846.407 123.868 844.631 124.288 842.663 124.288ZM842.663 118.96C843.839 118.96 844.835 118.528 845.651 117.664C846.491 116.8 846.911 115.564 846.911 113.956C846.911 112.348 846.503 111.112 845.687 110.248C844.895 109.384 843.911 108.952 842.735 108.952C841.535 108.952 840.539 109.384 839.747 110.248C838.955 111.088 838.559 112.324 838.559 113.956C838.559 115.564 838.943 116.8 839.711 117.664C840.503 118.528 841.487 118.96 842.663 118.96ZM868.681 103.696C871.033 103.696 872.905 104.464 874.297 106C875.713 107.512 876.421 109.6 876.421 112.264V124H870.301V113.092C870.301 111.748 869.953 110.704 869.257 109.96C868.561 109.216 867.625 108.844 866.449 108.844C865.273 108.844 864.337 109.216 863.641 109.96C862.945 110.704 862.597 111.748 862.597 113.092V124H856.441V103.912H862.597V106.576C863.221 105.688 864.061 104.992 865.117 104.488C866.173 103.96 867.361 103.696 868.681 103.696ZM879.475 113.92C879.475 111.856 879.859 110.044 880.627 108.484C881.419 106.924 882.487 105.724 883.831 104.884C885.175 104.044 886.675 103.624 888.331 103.624C889.651 103.624 890.851 103.9 891.931 104.452C893.035 105.004 893.899 105.748 894.523 106.684V97.36H900.679V124H894.523V121.12C893.947 122.08 893.119 122.848 892.039 123.424C890.983 124 889.747 124.288 888.331 124.288C886.675 124.288 885.175 123.868 883.831 123.028C882.487 122.164 881.419 120.952 880.627 119.392C879.859 117.808 879.475 115.984 879.475 113.92ZM894.523 113.956C894.523 112.42 894.091 111.208 893.227 110.32C892.387 109.432 891.355 108.988 890.131 108.988C888.907 108.988 887.863 109.432 886.999 110.32C886.159 111.184 885.739 112.384 885.739 113.92C885.739 115.456 886.159 116.68 886.999 117.592C887.863 118.48 888.907 118.924 890.131 118.924C891.355 118.924 892.387 118.48 893.227 117.592C894.091 116.704 894.523 115.492 894.523 113.956ZM924.068 113.632C924.068 114.208 924.032 114.808 923.96 115.432H910.028C910.124 116.68 910.52 117.64 911.216 118.312C911.936 118.96 912.812 119.284 913.844 119.284C915.38 119.284 916.448 118.636 917.048 117.34H923.6C923.264 118.66 922.652 119.848 921.764 120.904C920.9 121.96 919.808 122.788 918.488 123.388C917.168 123.988 915.692 124.288 914.06 124.288C912.092 124.288 910.34 123.868 908.804 123.028C907.268 122.188 906.068 120.988 905.204 119.428C904.34 117.868 903.908 116.044 903.908 113.956C903.908 111.868 904.328 110.044 905.168 108.484C906.032 106.924 907.232 105.724 908.768 104.884C910.304 104.044 912.068 103.624 914.06 103.624C916.004 103.624 917.732 104.032 919.244 104.848C920.756 105.664 921.932 106.828 922.772 108.34C923.636 109.852 924.068 111.616 924.068 113.632ZM917.768 112.012C917.768 110.956 917.408 110.116 916.688 109.492C915.968 108.868 915.068 108.556 913.988 108.556C912.956 108.556 912.08 108.856 911.36 109.456C910.664 110.056 910.232 110.908 910.064 112.012H917.768ZM933.721 113.956C933.721 111.868 934.141 110.044 934.981 108.484C935.845 106.924 937.033 105.724 938.545 104.884C940.081 104.044 941.833 103.624 943.801 103.624C946.321 103.624 948.421 104.284 950.101 105.604C951.805 106.924 952.921 108.784 953.449 111.184H946.897C946.345 109.648 945.277 108.88 943.693 108.88C942.565 108.88 941.665 109.324 940.993 110.212C940.321 111.076 939.985 112.324 939.985 113.956C939.985 115.588 940.321 116.848 940.993 117.736C941.665 118.6 942.565 119.032 943.693 119.032C945.277 119.032 946.345 118.264 946.897 116.728H953.449C952.921 119.08 951.805 120.928 950.101 122.272C948.397 123.616 946.297 124.288 943.801 124.288C941.833 124.288 940.081 123.868 938.545 123.028C937.033 122.188 935.845 120.988 934.981 119.428C934.141 117.868 933.721 116.044 933.721 113.956ZM965.886 124.288C963.918 124.288 962.142 123.868 960.558 123.028C958.998 122.188 957.762 120.988 956.85 119.428C955.962 117.868 955.518 116.044 955.518 113.956C955.518 111.892 955.974 110.08 956.886 108.52C957.798 106.936 959.046 105.724 960.63 104.884C962.214 104.044 963.99 103.624 965.958 103.624C967.926 103.624 969.702 104.044 971.286 104.884C972.87 105.724 974.118 106.936 975.03 108.52C975.942 110.08 976.398 111.892 976.398 113.956C976.398 116.02 975.93 117.844 974.994 119.428C974.082 120.988 972.822 122.188 971.214 123.028C969.63 123.868 967.854 124.288 965.886 124.288ZM965.886 118.96C967.062 118.96 968.058 118.528 968.874 117.664C969.714 116.8 970.134 115.564 970.134 113.956C970.134 112.348 969.726 111.112 968.91 110.248C968.118 109.384 967.134 108.952 965.958 108.952C964.758 108.952 963.762 109.384 962.97 110.248C962.178 111.088 961.782 112.324 961.782 113.956C961.782 115.564 962.166 116.8 962.934 117.664C963.726 118.528 964.71 118.96 965.886 118.96ZM1005.3 103.696C1007.79 103.696 1009.77 104.452 1011.24 105.964C1012.72 107.476 1013.47 109.576 1013.47 112.264V124H1007.35V113.092C1007.35 111.796 1007 110.8 1006.3 110.104C1005.63 109.384 1004.7 109.024 1003.5 109.024C1002.3 109.024 1001.35 109.384 1000.65 110.104C999.98 110.8 999.644 111.796 999.644 113.092V124H993.524V113.092C993.524 111.796 993.176 110.8 992.48 110.104C991.808 109.384 990.872 109.024 989.672 109.024C988.472 109.024 987.524 109.384 986.828 110.104C986.156 110.8 985.82 111.796 985.82 113.092V124H979.664V103.912H985.82V106.432C986.444 105.592 987.26 104.932 988.268 104.452C989.276 103.948 990.416 103.696 991.688 103.696C993.2 103.696 994.544 104.02 995.72 104.668C996.92 105.316 997.856 106.24 998.528 107.44C999.224 106.336 1000.17 105.436 1001.37 104.74C1002.57 104.044 1003.88 103.696 1005.3 103.696ZM1036.71 113.632C1036.71 114.208 1036.67 114.808 1036.6 115.432H1022.67C1022.77 116.68 1023.16 117.64 1023.86 118.312C1024.58 118.96 1025.45 119.284 1026.49 119.284C1028.02 119.284 1029.09 118.636 1029.69 117.34H1036.24C1035.91 118.66 1035.29 119.848 1034.41 120.904C1033.54 121.96 1032.45 122.788 1031.13 123.388C1029.81 123.988 1028.33 124.288 1026.7 124.288C1024.73 124.288 1022.98 123.868 1021.45 123.028C1019.91 122.188 1018.71 120.988 1017.85 119.428C1016.98 117.868 1016.55 116.044 1016.55 113.956C1016.55 111.868 1016.97 110.044 1017.81 108.484C1018.67 106.924 1019.87 105.724 1021.41 104.884C1022.95 104.044 1024.71 103.624 1026.7 103.624C1028.65 103.624 1030.37 104.032 1031.89 104.848C1033.4 105.664 1034.57 106.828 1035.41 108.34C1036.28 109.852 1036.71 111.616 1036.71 113.632ZM1030.41 112.012C1030.41 110.956 1030.05 110.116 1029.33 109.492C1028.61 108.868 1027.71 108.556 1026.63 108.556C1025.6 108.556 1024.72 108.856 1024 109.456C1023.31 110.056 1022.87 110.908 1022.71 112.012H1030.41ZM1048.7 119.032C1050.29 119.032 1051.36 118.264 1051.91 116.728H1058.46C1058 118.768 1057.09 120.436 1055.72 121.732C1054.36 123.028 1052.65 123.832 1050.61 124.144V125.476C1051.86 125.476 1052.95 125.812 1053.89 126.484C1054.82 127.18 1055.29 128.212 1055.29 129.58C1055.29 130.948 1054.8 131.98 1053.82 132.676C1052.83 133.396 1051.66 133.756 1050.29 133.756H1044.74V130.372H1049.46C1049.94 130.372 1050.3 130.3 1050.54 130.156C1050.78 130.012 1050.9 129.772 1050.9 129.436C1050.9 129.1 1050.78 128.86 1050.54 128.716C1050.3 128.596 1049.94 128.536 1049.46 128.536H1046.9V124.144C1044.43 123.76 1042.45 122.668 1040.96 120.868C1039.48 119.044 1038.73 116.74 1038.73 113.956C1038.73 111.868 1039.15 110.044 1039.99 108.484C1040.86 106.924 1042.04 105.724 1043.56 104.884C1045.09 104.044 1046.84 103.624 1048.81 103.624C1051.33 103.624 1053.43 104.284 1055.11 105.604C1056.82 106.924 1057.93 108.784 1058.46 111.184H1051.91C1051.36 109.648 1050.29 108.88 1048.7 108.88C1047.58 108.88 1046.68 109.324 1046 110.212C1045.33 111.076 1045 112.324 1045 113.956C1045 115.588 1045.33 116.848 1046 117.736C1046.68 118.6 1047.58 119.032 1048.7 119.032ZM1060.53 113.92C1060.53 111.856 1060.91 110.044 1061.68 108.484C1062.47 106.924 1063.54 105.724 1064.89 104.884C1066.23 104.044 1067.73 103.624 1069.39 103.624C1070.8 103.624 1072.04 103.912 1073.09 104.488C1074.17 105.064 1075 105.82 1075.58 106.756V103.912H1081.73V124H1075.58V121.156C1074.98 122.092 1074.14 122.848 1073.06 123.424C1072 124 1070.77 124.288 1069.35 124.288C1067.72 124.288 1066.23 123.868 1064.89 123.028C1063.54 122.164 1062.47 120.952 1061.68 119.392C1060.91 117.808 1060.53 115.984 1060.53 113.92ZM1075.58 113.956C1075.58 112.42 1075.15 111.208 1074.28 110.32C1073.44 109.432 1072.41 108.988 1071.19 108.988C1069.96 108.988 1068.92 109.432 1068.05 110.32C1067.21 111.184 1066.79 112.384 1066.79 113.92C1066.79 115.456 1067.21 116.68 1068.05 117.592C1068.92 118.48 1069.96 118.924 1071.19 118.924C1072.41 118.924 1073.44 118.48 1074.28 117.592C1075.15 116.704 1075.58 115.492 1075.58 113.956ZM1092.34 107.26C1093.06 106.156 1093.96 105.292 1095.04 104.668C1096.12 104.02 1097.32 103.696 1098.64 103.696V110.212H1096.95C1095.42 110.212 1094.26 110.548 1093.5 111.22C1092.73 111.868 1092.34 113.02 1092.34 114.676V124H1086.19V103.912H1092.34V107.26ZM1108.97 97.324C1111.53 97.324 1113.59 97.996 1115.12 99.34C1116.68 100.684 1117.46 102.58 1117.46 105.028C1117.46 107.284 1116.72 109.048 1115.23 110.32C1113.77 111.568 1111.82 112.204 1109.4 112.228L1109.22 114.928H1103.82L1103.64 108.232H1105.8C1107.65 108.232 1109.05 108.004 1110.01 107.548C1110.99 107.092 1111.49 106.264 1111.49 105.064C1111.49 104.224 1111.26 103.564 1110.8 103.084C1110.35 102.604 1109.71 102.364 1108.89 102.364C1108.03 102.364 1107.36 102.616 1106.88 103.12C1106.4 103.6 1106.16 104.26 1106.16 105.1H1100.36C1100.31 103.636 1100.61 102.316 1101.26 101.14C1101.93 99.964 1102.92 99.04 1104.21 98.368C1105.53 97.672 1107.12 97.324 1108.97 97.324ZM1106.59 124.288C1105.51 124.288 1104.62 123.976 1103.93 123.352C1103.25 122.704 1102.92 121.912 1102.92 120.976C1102.92 120.016 1103.25 119.212 1103.93 118.564C1104.62 117.916 1105.51 117.592 1106.59 117.592C1107.65 117.592 1108.51 117.916 1109.18 118.564C1109.88 119.212 1110.23 120.016 1110.23 120.976C1110.23 121.912 1109.88 122.704 1109.18 123.352C1108.51 123.976 1107.65 124.288 1106.59 124.288Z" fill="white"/>
<path d="M588.29 148.352V151.616H592.13V153.104H588.29V156.512H592.61V158H586.466V146.864H592.61V148.352H588.29ZM599.304 149.04C599.998 149.04 600.616 149.184 601.16 149.472C601.715 149.76 602.147 150.187 602.456 150.752C602.766 151.317 602.92 152 602.92 152.8V158H601.112V153.072C601.112 152.283 600.915 151.68 600.52 151.264C600.126 150.837 599.587 150.624 598.904 150.624C598.222 150.624 597.678 150.837 597.272 151.264C596.878 151.68 596.68 152.283 596.68 153.072V158H594.856V149.184H596.68V150.192C596.979 149.829 597.358 149.547 597.816 149.344C598.286 149.141 598.782 149.04 599.304 149.04ZM604.639 153.584C604.639 152.677 604.82 151.883 605.183 151.2C605.556 150.507 606.068 149.973 606.719 149.6C607.37 149.227 608.116 149.04 608.959 149.04C610.026 149.04 610.906 149.296 611.599 149.808C612.303 150.309 612.778 151.029 613.023 151.968H611.055C610.895 151.531 610.639 151.189 610.287 150.944C609.935 150.699 609.492 150.576 608.959 150.576C608.212 150.576 607.615 150.843 607.167 151.376C606.73 151.899 606.511 152.635 606.511 153.584C606.511 154.533 606.73 155.275 607.167 155.808C607.615 156.341 608.212 156.608 608.959 156.608C610.015 156.608 610.714 156.144 611.055 155.216H613.023C612.767 156.112 612.287 156.827 611.583 157.36C610.879 157.883 610.004 158.144 608.959 158.144C608.116 158.144 607.37 157.957 606.719 157.584C606.068 157.2 605.556 156.667 605.183 155.984C604.82 155.291 604.639 154.491 604.639 153.584ZM618.665 158.144C617.833 158.144 617.081 157.957 616.409 157.584C615.737 157.2 615.209 156.667 614.825 155.984C614.441 155.291 614.249 154.491 614.249 153.584C614.249 152.688 614.446 151.893 614.841 151.2C615.235 150.507 615.774 149.973 616.457 149.6C617.139 149.227 617.902 149.04 618.745 149.04C619.587 149.04 620.35 149.227 621.033 149.6C621.715 149.973 622.254 150.507 622.649 151.2C623.043 151.893 623.241 152.688 623.241 153.584C623.241 154.48 623.038 155.275 622.633 155.968C622.227 156.661 621.673 157.2 620.969 157.584C620.275 157.957 619.507 158.144 618.665 158.144ZM618.665 156.56C619.134 156.56 619.571 156.448 619.977 156.224C620.393 156 620.729 155.664 620.985 155.216C621.241 154.768 621.369 154.224 621.369 153.584C621.369 152.944 621.246 152.405 621.001 151.968C620.755 151.52 620.43 151.184 620.025 150.96C619.619 150.736 619.182 150.624 618.713 150.624C618.243 150.624 617.806 150.736 617.401 150.96C617.006 151.184 616.691 151.52 616.457 151.968C616.222 152.405 616.105 152.944 616.105 153.584C616.105 154.533 616.345 155.269 616.825 155.792C617.315 156.304 617.929 156.56 618.665 156.56ZM629.492 149.04C630.185 149.04 630.804 149.184 631.348 149.472C631.902 149.76 632.334 150.187 632.644 150.752C632.953 151.317 633.108 152 633.108 152.8V158H631.3V153.072C631.3 152.283 631.102 151.68 630.708 151.264C630.313 150.837 629.774 150.624 629.092 150.624C628.409 150.624 627.865 150.837 627.46 151.264C627.065 151.68 626.868 152.283 626.868 153.072V158H625.044V149.184H626.868V150.192C627.166 149.829 627.545 149.547 628.004 149.344C628.473 149.141 628.969 149.04 629.492 149.04ZM637.562 150.672V155.552C637.562 155.883 637.637 156.123 637.786 156.272C637.946 156.411 638.213 156.48 638.586 156.48H639.706V158H638.266C637.445 158 636.816 157.808 636.378 157.424C635.941 157.04 635.722 156.416 635.722 155.552V150.672H634.682V149.184H635.722V146.992H637.562V149.184H639.706V150.672H637.562ZM643.212 150.464C643.478 150.016 643.83 149.669 644.268 149.424C644.716 149.168 645.244 149.04 645.852 149.04V150.928H645.388C644.673 150.928 644.129 151.109 643.756 151.472C643.393 151.835 643.212 152.464 643.212 153.36V158H641.388V149.184H643.212V150.464ZM655.608 153.376C655.608 153.707 655.587 154.005 655.544 154.272H648.808C648.861 154.976 649.123 155.541 649.592 155.968C650.061 156.395 650.637 156.608 651.32 156.608C652.301 156.608 652.995 156.197 653.4 155.376H655.368C655.101 156.187 654.616 156.853 653.912 157.376C653.219 157.888 652.355 158.144 651.32 158.144C650.477 158.144 649.72 157.957 649.048 157.584C648.387 157.2 647.864 156.667 647.48 155.984C647.107 155.291 646.92 154.491 646.92 153.584C646.92 152.677 647.101 151.883 647.464 151.2C647.837 150.507 648.355 149.973 649.016 149.6C649.688 149.227 650.456 149.04 651.32 149.04C652.152 149.04 652.893 149.221 653.544 149.584C654.195 149.947 654.701 150.459 655.064 151.12C655.427 151.771 655.608 152.523 655.608 153.376ZM653.704 152.8C653.693 152.128 653.453 151.589 652.984 151.184C652.515 150.779 651.933 150.576 651.24 150.576C650.611 150.576 650.072 150.779 649.624 151.184C649.176 151.579 648.909 152.117 648.824 152.8H653.704ZM669.639 153.376C669.639 153.707 669.618 154.005 669.575 154.272H662.839C662.893 154.976 663.154 155.541 663.623 155.968C664.093 156.395 664.669 156.608 665.351 156.608C666.333 156.608 667.026 156.197 667.431 155.376H669.399C669.133 156.187 668.647 156.853 667.943 157.376C667.25 157.888 666.386 158.144 665.351 158.144C664.509 158.144 663.751 157.957 663.079 157.584C662.418 157.2 661.895 156.667 661.511 155.984C661.138 155.291 660.951 154.491 660.951 153.584C660.951 152.677 661.133 151.883 661.495 151.2C661.869 150.507 662.386 149.973 663.047 149.6C663.719 149.227 664.487 149.04 665.351 149.04C666.183 149.04 666.925 149.221 667.575 149.584C668.226 149.947 668.733 150.459 669.095 151.12C669.458 151.771 669.639 152.523 669.639 153.376ZM667.735 152.8C667.725 152.128 667.485 151.589 667.015 151.184C666.546 150.779 665.965 150.576 665.271 150.576C664.642 150.576 664.103 150.779 663.655 151.184C663.207 151.579 662.941 152.117 662.855 152.8H667.735ZM682.106 149.04C682.8 149.04 683.418 149.184 683.962 149.472C684.517 149.76 684.949 150.187 685.258 150.752C685.578 151.317 685.738 152 685.738 152.8V158H683.93V153.072C683.93 152.283 683.733 151.68 683.338 151.264C682.944 150.837 682.405 150.624 681.722 150.624C681.04 150.624 680.496 150.837 680.09 151.264C679.696 151.68 679.498 152.283 679.498 153.072V158H677.69V153.072C677.69 152.283 677.493 151.68 677.098 151.264C676.704 150.837 676.165 150.624 675.482 150.624C674.8 150.624 674.256 150.837 673.85 151.264C673.456 151.68 673.258 152.283 673.258 153.072V158H671.434V149.184H673.258V150.192C673.557 149.829 673.936 149.547 674.394 149.344C674.853 149.141 675.344 149.04 675.866 149.04C676.57 149.04 677.2 149.189 677.754 149.488C678.309 149.787 678.736 150.219 679.034 150.784C679.301 150.251 679.717 149.829 680.282 149.52C680.848 149.2 681.456 149.04 682.106 149.04ZM696.664 149.04C697.357 149.04 697.976 149.184 698.52 149.472C699.074 149.76 699.506 150.187 699.816 150.752C700.125 151.317 700.28 152 700.28 152.8V158H698.472V153.072C698.472 152.283 698.274 151.68 697.88 151.264C697.485 150.837 696.946 150.624 696.264 150.624C695.581 150.624 695.037 150.837 694.632 151.264C694.237 151.68 694.04 152.283 694.04 153.072V158H692.216V149.184H694.04V150.192C694.338 149.829 694.717 149.547 695.176 149.344C695.645 149.141 696.141 149.04 696.664 149.04ZM706.43 158.144C705.598 158.144 704.846 157.957 704.174 157.584C703.502 157.2 702.974 156.667 702.59 155.984C702.206 155.291 702.014 154.491 702.014 153.584C702.014 152.688 702.212 151.893 702.606 151.2C703.001 150.507 703.54 149.973 704.222 149.6C704.905 149.227 705.668 149.04 706.51 149.04C707.353 149.04 708.116 149.227 708.798 149.6C709.481 149.973 710.02 150.507 710.414 151.2C710.809 151.893 711.006 152.688 711.006 153.584C711.006 154.48 710.804 155.275 710.398 155.968C709.993 156.661 709.438 157.2 708.734 157.584C708.041 157.957 707.273 158.144 706.43 158.144ZM706.43 156.56C706.9 156.56 707.337 156.448 707.742 156.224C708.158 156 708.494 155.664 708.75 155.216C709.006 154.768 709.134 154.224 709.134 153.584C709.134 152.944 709.012 152.405 708.766 151.968C708.521 151.52 708.196 151.184 707.79 150.96C707.385 150.736 706.948 150.624 706.478 150.624C706.009 150.624 705.572 150.736 705.166 150.96C704.772 151.184 704.457 151.52 704.222 151.968C703.988 152.405 703.87 152.944 703.87 153.584C703.87 154.533 704.11 155.269 704.59 155.792C705.081 156.304 705.694 156.56 706.43 156.56ZM716.009 158.144C715.316 158.144 714.692 158.021 714.137 157.776C713.593 157.52 713.161 157.179 712.841 156.752C712.521 156.315 712.351 155.829 712.329 155.296H714.217C714.249 155.669 714.425 155.984 714.745 156.24C715.076 156.485 715.487 156.608 715.977 156.608C716.489 156.608 716.884 156.512 717.161 156.32C717.449 156.117 717.593 155.861 717.593 155.552C717.593 155.221 717.433 154.976 717.113 154.816C716.804 154.656 716.308 154.48 715.625 154.288C714.964 154.107 714.425 153.931 714.009 153.76C713.593 153.589 713.231 153.328 712.921 152.976C712.623 152.624 712.473 152.16 712.473 151.584C712.473 151.115 712.612 150.688 712.889 150.304C713.167 149.909 713.561 149.6 714.073 149.376C714.596 149.152 715.193 149.04 715.865 149.04C716.868 149.04 717.673 149.296 718.281 149.808C718.9 150.309 719.231 150.997 719.273 151.872H717.449C717.417 151.477 717.257 151.163 716.969 150.928C716.681 150.693 716.292 150.576 715.801 150.576C715.321 150.576 714.953 150.667 714.697 150.848C714.441 151.029 714.313 151.269 714.313 151.568C714.313 151.803 714.399 152 714.569 152.16C714.74 152.32 714.948 152.448 715.193 152.544C715.439 152.629 715.801 152.741 716.281 152.88C716.921 153.051 717.444 153.227 717.849 153.408C718.265 153.579 718.623 153.835 718.921 154.176C719.22 154.517 719.375 154.971 719.385 155.536C719.385 156.037 719.247 156.485 718.969 156.88C718.692 157.275 718.297 157.584 717.785 157.808C717.284 158.032 716.692 158.144 716.009 158.144ZM724.556 158.144C723.863 158.144 723.239 158.021 722.684 157.776C722.14 157.52 721.708 157.179 721.388 156.752C721.068 156.315 720.898 155.829 720.876 155.296H722.764C722.796 155.669 722.972 155.984 723.292 156.24C723.623 156.485 724.034 156.608 724.524 156.608C725.036 156.608 725.431 156.512 725.708 156.32C725.996 156.117 726.14 155.861 726.14 155.552C726.14 155.221 725.98 154.976 725.66 154.816C725.351 154.656 724.855 154.48 724.172 154.288C723.511 154.107 722.972 153.931 722.556 153.76C722.14 153.589 721.778 153.328 721.468 152.976C721.17 152.624 721.02 152.16 721.02 151.584C721.02 151.115 721.159 150.688 721.436 150.304C721.714 149.909 722.108 149.6 722.62 149.376C723.143 149.152 723.74 149.04 724.412 149.04C725.415 149.04 726.22 149.296 726.828 149.808C727.447 150.309 727.778 150.997 727.82 151.872H725.996C725.964 151.477 725.804 151.163 725.516 150.928C725.228 150.693 724.839 150.576 724.348 150.576C723.868 150.576 723.5 150.667 723.244 150.848C722.988 151.029 722.86 151.269 722.86 151.568C722.86 151.803 722.946 152 723.116 152.16C723.287 152.32 723.495 152.448 723.74 152.544C723.986 152.629 724.348 152.741 724.828 152.88C725.468 153.051 725.991 153.227 726.396 153.408C726.812 153.579 727.17 153.835 727.468 154.176C727.767 154.517 727.922 154.971 727.932 155.536C727.932 156.037 727.794 156.485 727.516 156.88C727.239 157.275 726.844 157.584 726.332 157.808C725.831 158.032 725.239 158.144 724.556 158.144ZM729.295 153.552C729.295 152.667 729.476 151.883 729.839 151.2C730.212 150.517 730.714 149.989 731.343 149.616C731.983 149.232 732.687 149.04 733.455 149.04C734.148 149.04 734.751 149.179 735.263 149.456C735.786 149.723 736.202 150.059 736.511 150.464V149.184H738.351V158H736.511V156.688C736.202 157.104 735.78 157.451 735.247 157.728C734.714 158.005 734.106 158.144 733.423 158.144C732.666 158.144 731.972 157.952 731.343 157.568C730.714 157.173 730.212 156.629 729.839 155.936C729.476 155.232 729.295 154.437 729.295 153.552ZM736.511 153.584C736.511 152.976 736.383 152.448 736.127 152C735.882 151.552 735.556 151.211 735.151 150.976C734.746 150.741 734.308 150.624 733.839 150.624C733.37 150.624 732.932 150.741 732.527 150.976C732.122 151.2 731.791 151.536 731.535 151.984C731.29 152.421 731.167 152.944 731.167 153.552C731.167 154.16 731.29 154.693 731.535 155.152C731.791 155.611 732.122 155.963 732.527 156.208C732.943 156.443 733.38 156.56 733.839 156.56C734.308 156.56 734.746 156.443 735.151 156.208C735.556 155.973 735.882 155.632 736.127 155.184C736.383 154.725 736.511 154.192 736.511 153.584ZM752.983 153.376C752.983 153.707 752.962 154.005 752.919 154.272H746.183C746.236 154.976 746.498 155.541 746.967 155.968C747.436 156.395 748.012 156.608 748.695 156.608C749.676 156.608 750.37 156.197 750.775 155.376H752.743C752.476 156.187 751.991 156.853 751.287 157.376C750.594 157.888 749.73 158.144 748.695 158.144C747.852 158.144 747.095 157.957 746.423 157.584C745.762 157.2 745.239 156.667 744.855 155.984C744.482 155.291 744.295 154.491 744.295 153.584C744.295 152.677 744.476 151.883 744.839 151.2C745.212 150.507 745.73 149.973 746.391 149.6C747.063 149.227 747.831 149.04 748.695 149.04C749.527 149.04 750.268 149.221 750.919 149.584C751.57 149.947 752.076 150.459 752.439 151.12C752.802 151.771 752.983 152.523 752.983 153.376ZM751.079 152.8C751.068 152.128 750.828 151.589 750.359 151.184C749.89 150.779 749.308 150.576 748.615 150.576C747.986 150.576 747.447 150.779 746.999 151.184C746.551 151.579 746.284 152.117 746.199 152.8H751.079ZM757.978 158.144C757.285 158.144 756.661 158.021 756.106 157.776C755.562 157.52 755.13 157.179 754.81 156.752C754.49 156.315 754.319 155.829 754.298 155.296H756.186C756.218 155.669 756.394 155.984 756.714 156.24C757.045 156.485 757.455 156.608 757.946 156.608C758.458 156.608 758.853 156.512 759.13 156.32C759.418 156.117 759.562 155.861 759.562 155.552C759.562 155.221 759.402 154.976 759.082 154.816C758.773 154.656 758.277 154.48 757.594 154.288C756.933 154.107 756.394 153.931 755.978 153.76C755.562 153.589 755.199 153.328 754.89 152.976C754.591 152.624 754.442 152.16 754.442 151.584C754.442 151.115 754.581 150.688 754.858 150.304C755.135 149.909 755.53 149.6 756.042 149.376C756.565 149.152 757.162 149.04 757.834 149.04C758.837 149.04 759.642 149.296 760.25 149.808C760.869 150.309 761.199 150.997 761.242 151.872H759.418C759.386 151.477 759.226 151.163 758.938 150.928C758.65 150.693 758.261 150.576 757.77 150.576C757.29 150.576 756.922 150.667 756.666 150.848C756.41 151.029 756.282 151.269 756.282 151.568C756.282 151.803 756.367 152 756.538 152.16C756.709 152.32 756.917 152.448 757.162 152.544C757.407 152.629 757.77 152.741 758.25 152.88C758.89 153.051 759.413 153.227 759.818 153.408C760.234 153.579 760.591 153.835 760.89 154.176C761.189 154.517 761.343 154.971 761.354 155.536C761.354 156.037 761.215 156.485 760.938 156.88C760.661 157.275 760.266 157.584 759.754 157.808C759.253 158.032 758.661 158.144 757.978 158.144ZM765.453 150.672V155.552C765.453 155.883 765.528 156.123 765.677 156.272C765.837 156.411 766.104 156.48 766.477 156.48H767.597V158H766.157C765.336 158 764.706 157.808 764.269 157.424C763.832 157.04 763.613 156.416 763.613 155.552V150.672H762.573V149.184H763.613V146.992H765.453V149.184H767.597V150.672H765.453ZM768.67 153.552C768.67 152.667 768.851 151.883 769.214 151.2C769.587 150.517 770.089 149.989 770.718 149.616C771.358 149.232 772.062 149.04 772.83 149.04C773.523 149.04 774.126 149.179 774.638 149.456C775.161 149.723 775.577 150.059 775.886 150.464V149.184H777.726V158H775.886V156.688C775.577 157.104 775.155 157.451 774.622 157.728C774.089 158.005 773.481 158.144 772.798 158.144C772.041 158.144 771.347 157.952 770.718 157.568C770.089 157.173 769.587 156.629 769.214 155.936C768.851 155.232 768.67 154.437 768.67 153.552ZM775.886 153.584C775.886 152.976 775.758 152.448 775.502 152C775.257 151.552 774.931 151.211 774.526 150.976C774.121 150.741 773.683 150.624 773.214 150.624C772.745 150.624 772.307 150.741 771.902 150.976C771.497 151.2 771.166 151.536 770.91 151.984C770.665 152.421 770.542 152.944 770.542 153.552C770.542 154.16 770.665 154.693 770.91 155.152C771.166 155.611 771.497 155.963 771.902 156.208C772.318 156.443 772.755 156.56 773.214 156.56C773.683 156.56 774.121 156.443 774.526 156.208C774.931 155.973 775.257 155.632 775.502 155.184C775.758 154.725 775.886 154.192 775.886 153.584ZM784.57 149.04C785.263 149.04 785.882 149.184 786.426 149.472C786.981 149.76 787.413 150.187 787.722 150.752C788.031 151.317 788.186 152 788.186 152.8V158H786.378V153.072C786.378 152.283 786.181 151.68 785.786 151.264C785.391 150.837 784.853 150.624 784.17 150.624C783.487 150.624 782.943 150.837 782.538 151.264C782.143 151.68 781.946 152.283 781.946 153.072V158H780.122V149.184H781.946V150.192C782.245 149.829 782.623 149.547 783.082 149.344C783.551 149.141 784.047 149.04 784.57 149.04ZM792.641 150.672V155.552C792.641 155.883 792.715 156.123 792.865 156.272C793.025 156.411 793.291 156.48 793.665 156.48H794.785V158H793.345C792.523 158 791.894 157.808 791.457 157.424C791.019 157.04 790.801 156.416 790.801 155.552V150.672H789.761V149.184H790.801V146.992H792.641V149.184H794.785V150.672H792.641ZM804.546 153.376C804.546 153.707 804.524 154.005 804.482 154.272H797.746C797.799 154.976 798.06 155.541 798.53 155.968C798.999 156.395 799.575 156.608 800.258 156.608C801.239 156.608 801.932 156.197 802.338 155.376H804.306C804.039 156.187 803.554 156.853 802.85 157.376C802.156 157.888 801.292 158.144 800.258 158.144C799.415 158.144 798.658 157.957 797.986 157.584C797.324 157.2 796.802 156.667 796.418 155.984C796.044 155.291 795.858 154.491 795.858 153.584C795.858 152.677 796.039 151.883 796.402 151.2C796.775 150.507 797.292 149.973 797.954 149.6C798.626 149.227 799.394 149.04 800.258 149.04C801.09 149.04 801.831 149.221 802.482 149.584C803.132 149.947 803.639 150.459 804.002 151.12C804.364 151.771 804.546 152.523 804.546 153.376ZM802.642 152.8C802.631 152.128 802.391 151.589 801.922 151.184C801.452 150.779 800.871 150.576 800.178 150.576C799.548 150.576 799.01 150.779 798.562 151.184C798.114 151.579 797.847 152.117 797.762 152.8H802.642ZM814.321 158.144C813.489 158.144 812.737 157.957 812.065 157.584C811.393 157.2 810.865 156.667 810.481 155.984C810.097 155.291 809.905 154.491 809.905 153.584C809.905 152.688 810.102 151.893 810.497 151.2C810.892 150.507 811.43 149.973 812.113 149.6C812.796 149.227 813.558 149.04 814.401 149.04C815.244 149.04 816.006 149.227 816.689 149.6C817.372 149.973 817.91 150.507 818.305 151.2C818.7 151.893 818.897 152.688 818.897 153.584C818.897 154.48 818.694 155.275 818.289 155.968C817.884 156.661 817.329 157.2 816.625 157.584C815.932 157.957 815.164 158.144 814.321 158.144ZM814.321 156.56C814.79 156.56 815.228 156.448 815.633 156.224C816.049 156 816.385 155.664 816.641 155.216C816.897 154.768 817.025 154.224 817.025 153.584C817.025 152.944 816.902 152.405 816.657 151.968C816.412 151.52 816.086 151.184 815.681 150.96C815.276 150.736 814.838 150.624 814.369 150.624C813.9 150.624 813.462 150.736 813.057 150.96C812.662 151.184 812.348 151.52 812.113 151.968C811.878 152.405 811.761 152.944 811.761 153.584C811.761 154.533 812.001 155.269 812.481 155.792C812.972 156.304 813.585 156.56 814.321 156.56ZM824.248 153.552C824.248 152.667 824.43 151.883 824.792 151.2C825.166 150.517 825.667 149.989 826.296 149.616C826.936 149.232 827.646 149.04 828.424 149.04C829.107 149.04 829.71 149.179 830.232 149.456C830.766 149.733 831.176 150.069 831.464 150.464V149.184H833.304V162.192H831.464V156.72C831.176 157.115 830.76 157.451 830.216 157.728C829.672 158.005 829.054 158.144 828.36 158.144C827.603 158.144 826.91 157.952 826.28 157.568C825.662 157.173 825.166 156.629 824.792 155.936C824.43 155.232 824.248 154.437 824.248 153.552ZM831.464 153.584C831.464 152.976 831.336 152.448 831.08 152C830.835 151.552 830.51 151.211 830.104 150.976C829.699 150.741 829.262 150.624 828.792 150.624C828.323 150.624 827.886 150.741 827.48 150.976C827.075 151.2 826.744 151.536 826.488 151.984C826.243 152.421 826.12 152.944 826.12 153.552C826.12 154.16 826.243 154.693 826.488 155.152C826.744 155.611 827.075 155.963 827.48 156.208C827.896 156.443 828.334 156.56 828.792 156.56C829.262 156.56 829.699 156.443 830.104 156.208C830.51 155.973 830.835 155.632 831.08 155.184C831.336 154.725 831.464 154.192 831.464 153.584ZM843.684 149.184V158H841.86V156.96C841.572 157.323 841.193 157.611 840.724 157.824C840.265 158.027 839.775 158.128 839.252 158.128C838.559 158.128 837.935 157.984 837.38 157.696C836.836 157.408 836.404 156.981 836.084 156.416C835.775 155.851 835.62 155.168 835.62 154.368V149.184H837.428V154.096C837.428 154.885 837.625 155.493 838.02 155.92C838.415 156.336 838.953 156.544 839.636 156.544C840.319 156.544 840.857 156.336 841.252 155.92C841.657 155.493 841.86 154.885 841.86 154.096V149.184H843.684ZM854.171 153.376C854.171 153.707 854.149 154.005 854.107 154.272H847.371C847.424 154.976 847.685 155.541 848.155 155.968C848.624 156.395 849.2 156.608 849.883 156.608C850.864 156.608 851.557 156.197 851.963 155.376H853.931C853.664 156.187 853.179 156.853 852.475 157.376C851.781 157.888 850.917 158.144 849.883 158.144C849.04 158.144 848.283 157.957 847.611 157.584C846.949 157.2 846.427 156.667 846.043 155.984C845.669 155.291 845.483 154.491 845.483 153.584C845.483 152.677 845.664 151.883 846.027 151.2C846.4 150.507 846.917 149.973 847.579 149.6C848.251 149.227 849.019 149.04 849.883 149.04C850.715 149.04 851.456 149.221 852.107 149.584C852.757 149.947 853.264 150.459 853.627 151.12C853.989 151.771 854.171 152.523 854.171 153.376ZM852.267 152.8C852.256 152.128 852.016 151.589 851.547 151.184C851.077 150.779 850.496 150.576 849.803 150.576C849.173 150.576 848.635 150.779 848.187 151.184C847.739 151.579 847.472 152.117 847.387 152.8H852.267ZM861.946 150.48C862.255 150.075 862.677 149.733 863.21 149.456C863.743 149.179 864.346 149.04 865.018 149.04C865.786 149.04 866.485 149.232 867.114 149.616C867.754 149.989 868.255 150.517 868.618 151.2C868.981 151.883 869.162 152.667 869.162 153.552C869.162 154.437 868.981 155.232 868.618 155.936C868.255 156.629 867.754 157.173 867.114 157.568C866.485 157.952 865.786 158.144 865.018 158.144C864.346 158.144 863.749 158.011 863.226 157.744C862.703 157.467 862.277 157.125 861.946 156.72V162.192H860.122V149.184H861.946V150.48ZM867.306 153.552C867.306 152.944 867.178 152.421 866.922 151.984C866.677 151.536 866.346 151.2 865.93 150.976C865.525 150.741 865.087 150.624 864.618 150.624C864.159 150.624 863.722 150.741 863.306 150.976C862.901 151.211 862.57 151.552 862.314 152C862.069 152.448 861.946 152.976 861.946 153.584C861.946 154.192 862.069 154.725 862.314 155.184C862.57 155.632 862.901 155.973 863.306 156.208C863.722 156.443 864.159 156.56 864.618 156.56C865.087 156.56 865.525 156.443 865.93 156.208C866.346 155.963 866.677 155.611 866.922 155.152C867.178 154.693 867.306 154.16 867.306 153.552ZM872.79 150.464C873.056 150.016 873.408 149.669 873.846 149.424C874.294 149.168 874.822 149.04 875.43 149.04V150.928H874.966C874.251 150.928 873.707 151.109 873.334 151.472C872.971 151.835 872.79 152.464 872.79 153.36V158H870.966V149.184H872.79V150.464ZM885.186 153.376C885.186 153.707 885.165 154.005 885.122 154.272H878.386C878.44 154.976 878.701 155.541 879.17 155.968C879.64 156.395 880.216 156.608 880.898 156.608C881.88 156.608 882.573 156.197 882.978 155.376H884.946C884.68 156.187 884.194 156.853 883.49 157.376C882.797 157.888 881.933 158.144 880.898 158.144C880.056 158.144 879.298 157.957 878.626 157.584C877.965 157.2 877.442 156.667 877.058 155.984C876.685 155.291 876.498 154.491 876.498 153.584C876.498 152.677 876.68 151.883 877.042 151.2C877.416 150.507 877.933 149.973 878.594 149.6C879.266 149.227 880.034 149.04 880.898 149.04C881.73 149.04 882.472 149.221 883.122 149.584C883.773 149.947 884.28 150.459 884.642 151.12C885.005 151.771 885.186 152.523 885.186 153.376ZM883.282 152.8C883.272 152.128 883.032 151.589 882.562 151.184C882.093 150.779 881.512 150.576 880.818 150.576C880.189 150.576 879.65 150.779 879.202 151.184C878.754 151.579 878.488 152.117 878.402 152.8H883.282ZM886.373 153.584C886.373 152.677 886.555 151.883 886.917 151.2C887.291 150.507 887.803 149.973 888.453 149.6C889.104 149.227 889.851 149.04 890.693 149.04C891.76 149.04 892.64 149.296 893.333 149.808C894.037 150.309 894.512 151.029 894.757 151.968H892.789C892.629 151.531 892.373 151.189 892.021 150.944C891.669 150.699 891.227 150.576 890.693 150.576C889.947 150.576 889.349 150.843 888.901 151.376C888.464 151.899 888.245 152.635 888.245 153.584C888.245 154.533 888.464 155.275 888.901 155.808C889.349 156.341 889.947 156.608 890.693 156.608C891.749 156.608 892.448 156.144 892.789 155.216H894.757C894.501 156.112 894.021 156.827 893.317 157.36C892.613 157.883 891.739 158.144 890.693 158.144C889.851 158.144 889.104 157.957 888.453 157.584C887.803 157.2 887.291 156.667 886.917 155.984C886.555 155.291 886.373 154.491 886.373 153.584ZM897.503 148.016C897.172 148.016 896.895 147.904 896.671 147.68C896.447 147.456 896.335 147.179 896.335 146.848C896.335 146.517 896.447 146.24 896.671 146.016C896.895 145.792 897.172 145.68 897.503 145.68C897.823 145.68 898.095 145.792 898.319 146.016C898.543 146.24 898.655 146.517 898.655 146.848C898.655 147.179 898.543 147.456 898.319 147.68C898.095 147.904 897.823 148.016 897.503 148.016ZM898.399 149.184V158H896.575V149.184H898.399ZM903.994 158.144C903.3 158.144 902.676 158.021 902.122 157.776C901.578 157.52 901.146 157.179 900.826 156.752C900.506 156.315 900.335 155.829 900.314 155.296H902.202C902.234 155.669 902.41 155.984 902.73 156.24C903.06 156.485 903.471 156.608 903.962 156.608C904.474 156.608 904.868 156.512 905.146 156.32C905.434 156.117 905.578 155.861 905.578 155.552C905.578 155.221 905.418 154.976 905.098 154.816C904.788 154.656 904.292 154.48 903.61 154.288C902.948 154.107 902.41 153.931 901.994 153.76C901.578 153.589 901.215 153.328 900.906 152.976C900.607 152.624 900.458 152.16 900.458 151.584C900.458 151.115 900.596 150.688 900.874 150.304C901.151 149.909 901.546 149.6 902.058 149.376C902.58 149.152 903.178 149.04 903.85 149.04C904.852 149.04 905.658 149.296 906.266 149.808C906.884 150.309 907.215 150.997 907.258 151.872H905.434C905.402 151.477 905.242 151.163 904.954 150.928C904.666 150.693 904.276 150.576 903.786 150.576C903.306 150.576 902.938 150.667 902.682 150.848C902.426 151.029 902.298 151.269 902.298 151.568C902.298 151.803 902.383 152 902.554 152.16C902.724 152.32 902.932 152.448 903.178 152.544C903.423 152.629 903.786 152.741 904.266 152.88C904.906 153.051 905.428 153.227 905.834 153.408C906.25 153.579 906.607 153.835 906.906 154.176C907.204 154.517 907.359 154.971 907.37 155.536C907.37 156.037 907.231 156.485 906.954 156.88C906.676 157.275 906.282 157.584 905.77 157.808C905.268 158.032 904.676 158.144 903.994 158.144ZM908.733 153.552C908.733 152.667 908.914 151.883 909.277 151.2C909.65 150.517 910.151 149.989 910.781 149.616C911.421 149.232 912.125 149.04 912.893 149.04C913.586 149.04 914.189 149.179 914.701 149.456C915.223 149.723 915.639 150.059 915.949 150.464V149.184H917.789V158H915.949V156.688C915.639 157.104 915.218 157.451 914.685 157.728C914.151 158.005 913.543 158.144 912.861 158.144C912.103 158.144 911.41 157.952 910.781 157.568C910.151 157.173 909.65 156.629 909.277 155.936C908.914 155.232 908.733 154.437 908.733 153.552ZM915.949 153.584C915.949 152.976 915.821 152.448 915.565 152C915.319 151.552 914.994 151.211 914.589 150.976C914.183 150.741 913.746 150.624 913.277 150.624C912.807 150.624 912.37 150.741 911.965 150.976C911.559 151.2 911.229 151.536 910.973 151.984C910.727 152.421 910.605 152.944 910.605 153.552C910.605 154.16 910.727 154.693 910.973 155.152C911.229 155.611 911.559 155.963 911.965 156.208C912.381 156.443 912.818 156.56 913.277 156.56C913.746 156.56 914.183 156.443 914.589 156.208C914.994 155.973 915.319 155.632 915.565 155.184C915.821 154.725 915.949 154.192 915.949 153.584ZM926.165 150.48C926.474 150.075 926.895 149.733 927.429 149.456C927.962 149.179 928.565 149.04 929.237 149.04C930.005 149.04 930.703 149.232 931.333 149.616C931.973 149.989 932.474 150.517 932.837 151.2C933.199 151.883 933.381 152.667 933.381 153.552C933.381 154.437 933.199 155.232 932.837 155.936C932.474 156.629 931.973 157.173 931.333 157.568C930.703 157.952 930.005 158.144 929.237 158.144C928.565 158.144 927.967 158.011 927.445 157.744C926.922 157.467 926.495 157.125 926.165 156.72V162.192H924.341V149.184H926.165V150.48ZM931.525 153.552C931.525 152.944 931.397 152.421 931.141 151.984C930.895 151.536 930.565 151.2 930.149 150.976C929.743 150.741 929.306 150.624 928.837 150.624C928.378 150.624 927.941 150.741 927.525 150.976C927.119 151.211 926.789 151.552 926.533 152C926.287 152.448 926.165 152.976 926.165 153.584C926.165 154.192 926.287 154.725 926.533 155.184C926.789 155.632 927.119 155.973 927.525 156.208C927.941 156.443 928.378 156.56 928.837 156.56C929.306 156.56 929.743 156.443 930.149 156.208C930.565 155.963 930.895 155.611 931.141 155.152C931.397 154.693 931.525 154.16 931.525 153.552ZM934.576 153.552C934.576 152.667 934.758 151.883 935.12 151.2C935.494 150.517 935.995 149.989 936.624 149.616C937.264 149.232 937.968 149.04 938.736 149.04C939.43 149.04 940.032 149.179 940.544 149.456C941.067 149.723 941.483 150.059 941.792 150.464V149.184H943.632V158H941.792V156.688C941.483 157.104 941.062 157.451 940.528 157.728C939.995 158.005 939.387 158.144 938.704 158.144C937.947 158.144 937.254 157.952 936.624 157.568C935.995 157.173 935.494 156.629 935.12 155.936C934.758 155.232 934.576 154.437 934.576 153.552ZM941.792 153.584C941.792 152.976 941.664 152.448 941.408 152C941.163 151.552 940.838 151.211 940.432 150.976C940.027 150.741 939.59 150.624 939.12 150.624C938.651 150.624 938.214 150.741 937.808 150.976C937.403 151.2 937.072 151.536 936.816 151.984C936.571 152.421 936.448 152.944 936.448 153.552C936.448 154.16 936.571 154.693 936.816 155.152C937.072 155.611 937.403 155.963 937.808 156.208C938.224 156.443 938.662 156.56 939.12 156.56C939.59 156.56 940.027 156.443 940.432 156.208C940.838 155.973 941.163 155.632 941.408 155.184C941.664 154.725 941.792 154.192 941.792 153.584ZM947.852 150.464C948.119 150.016 948.471 149.669 948.908 149.424C949.356 149.168 949.884 149.04 950.492 149.04V150.928H950.028C949.313 150.928 948.769 151.109 948.396 151.472C948.033 151.835 947.852 152.464 947.852 153.36V158H946.028V149.184H947.852V150.464ZM951.561 153.552C951.561 152.667 951.742 151.883 952.105 151.2C952.478 150.517 952.979 149.989 953.609 149.616C954.249 149.232 954.953 149.04 955.721 149.04C956.414 149.04 957.017 149.179 957.529 149.456C958.051 149.723 958.467 150.059 958.777 150.464V149.184H960.617V158H958.777V156.688C958.467 157.104 958.046 157.451 957.513 157.728C956.979 158.005 956.371 158.144 955.689 158.144C954.931 158.144 954.238 157.952 953.609 157.568C952.979 157.173 952.478 156.629 952.105 155.936C951.742 155.232 951.561 154.437 951.561 153.552ZM958.777 153.584C958.777 152.976 958.649 152.448 958.393 152C958.147 151.552 957.822 151.211 957.417 150.976C957.011 150.741 956.574 150.624 956.105 150.624C955.635 150.624 955.198 150.741 954.793 150.976C954.387 151.2 954.057 151.536 953.801 151.984C953.555 152.421 953.433 152.944 953.433 153.552C953.433 154.16 953.555 154.693 953.801 155.152C954.057 155.611 954.387 155.963 954.793 156.208C955.209 156.443 955.646 156.56 956.105 156.56C956.574 156.56 957.011 156.443 957.417 156.208C957.822 155.973 958.147 155.632 958.393 155.184C958.649 154.725 958.777 154.192 958.777 153.584ZM970.369 158.144C969.675 158.144 969.051 158.021 968.497 157.776C967.953 157.52 967.521 157.179 967.201 156.752C966.881 156.315 966.71 155.829 966.689 155.296H968.577C968.609 155.669 968.785 155.984 969.105 156.24C969.435 156.485 969.846 156.608 970.337 156.608C970.849 156.608 971.243 156.512 971.521 156.32C971.809 156.117 971.953 155.861 971.953 155.552C971.953 155.221 971.793 154.976 971.473 154.816C971.163 154.656 970.667 154.48 969.985 154.288C969.323 154.107 968.785 153.931 968.369 153.76C967.953 153.589 967.59 153.328 967.281 152.976C966.982 152.624 966.833 152.16 966.833 151.584C966.833 151.115 966.971 150.688 967.249 150.304C967.526 149.909 967.921 149.6 968.433 149.376C968.955 149.152 969.553 149.04 970.225 149.04C971.227 149.04 972.033 149.296 972.641 149.808C973.259 150.309 973.59 150.997 973.633 151.872H971.809C971.777 151.477 971.617 151.163 971.329 150.928C971.041 150.693 970.651 150.576 970.161 150.576C969.681 150.576 969.313 150.667 969.057 150.848C968.801 151.029 968.673 151.269 968.673 151.568C968.673 151.803 968.758 152 968.929 152.16C969.099 152.32 969.307 152.448 969.553 152.544C969.798 152.629 970.161 152.741 970.641 152.88C971.281 153.051 971.803 153.227 972.209 153.408C972.625 153.579 972.982 153.835 973.281 154.176C973.579 154.517 973.734 154.971 973.745 155.536C973.745 156.037 973.606 156.485 973.329 156.88C973.051 157.275 972.657 157.584 972.145 157.808C971.643 158.032 971.051 158.144 970.369 158.144ZM983.796 153.376C983.796 153.707 983.774 154.005 983.732 154.272H976.996C977.049 154.976 977.31 155.541 977.78 155.968C978.249 156.395 978.825 156.608 979.508 156.608C980.489 156.608 981.182 156.197 981.588 155.376H983.556C983.289 156.187 982.804 156.853 982.1 157.376C981.406 157.888 980.542 158.144 979.508 158.144C978.665 158.144 977.908 157.957 977.236 157.584C976.574 157.2 976.052 156.667 975.668 155.984C975.294 155.291 975.108 154.491 975.108 153.584C975.108 152.677 975.289 151.883 975.652 151.2C976.025 150.507 976.542 149.973 977.204 149.6C977.876 149.227 978.644 149.04 979.508 149.04C980.34 149.04 981.081 149.221 981.732 149.584C982.382 149.947 982.889 150.459 983.252 151.12C983.614 151.771 983.796 152.523 983.796 153.376ZM981.892 152.8C981.881 152.128 981.641 151.589 981.172 151.184C980.702 150.779 980.121 150.576 979.428 150.576C978.798 150.576 978.26 150.779 977.812 151.184C977.364 151.579 977.097 152.117 977.012 152.8H981.892ZM993.575 149.184V158H991.751V156.96C991.463 157.323 991.084 157.611 990.615 157.824C990.156 158.027 989.665 158.128 989.143 158.128C988.449 158.128 987.825 157.984 987.271 157.696C986.727 157.408 986.295 156.981 985.975 156.416C985.665 155.851 985.511 155.168 985.511 154.368V149.184H987.319V154.096C987.319 154.885 987.516 155.493 987.911 155.92C988.305 156.336 988.844 156.544 989.527 156.544C990.209 156.544 990.748 156.336 991.143 155.92C991.548 155.493 991.751 154.885 991.751 154.096V149.184H993.575ZM999.53 153.552C999.53 152.667 999.711 151.883 1000.07 151.2C1000.45 150.517 1000.95 149.989 1001.58 149.616C1002.22 149.232 1002.93 149.04 1003.71 149.04C1004.28 149.04 1004.85 149.168 1005.4 149.424C1005.97 149.669 1006.41 150 1006.75 150.416V146.16H1008.59V158H1006.75V156.672C1006.45 157.099 1006.03 157.451 1005.5 157.728C1004.97 158.005 1004.37 158.144 1003.69 158.144C1002.92 158.144 1002.22 157.952 1001.58 157.568C1000.95 157.173 1000.45 156.629 1000.07 155.936C999.711 155.232 999.53 154.437 999.53 153.552ZM1006.75 153.584C1006.75 152.976 1006.62 152.448 1006.36 152C1006.12 151.552 1005.79 151.211 1005.39 150.976C1004.98 150.741 1004.54 150.624 1004.07 150.624C1003.6 150.624 1003.17 150.741 1002.76 150.976C1002.36 151.2 1002.03 151.536 1001.77 151.984C1001.52 152.421 1001.4 152.944 1001.4 153.552C1001.4 154.16 1001.52 154.693 1001.77 155.152C1002.03 155.611 1002.36 155.963 1002.76 156.208C1003.18 156.443 1003.61 156.56 1004.07 156.56C1004.54 156.56 1004.98 156.443 1005.39 156.208C1005.79 155.973 1006.12 155.632 1006.36 155.184C1006.62 154.725 1006.75 154.192 1006.75 153.584ZM1019.06 153.376C1019.06 153.707 1019.04 154.005 1019 154.272H1012.26C1012.31 154.976 1012.58 155.541 1013.05 155.968C1013.51 156.395 1014.09 156.608 1014.77 156.608C1015.75 156.608 1016.45 156.197 1016.85 155.376H1018.82C1018.55 156.187 1018.07 156.853 1017.37 157.376C1016.67 157.888 1015.81 158.144 1014.77 158.144C1013.93 158.144 1013.17 157.957 1012.5 157.584C1011.84 157.2 1011.32 156.667 1010.93 155.984C1010.56 155.291 1010.37 154.491 1010.37 153.584C1010.37 152.677 1010.55 151.883 1010.92 151.2C1011.29 150.507 1011.81 149.973 1012.47 149.6C1013.14 149.227 1013.91 149.04 1014.77 149.04C1015.61 149.04 1016.35 149.221 1017 149.584C1017.65 149.947 1018.15 150.459 1018.52 151.12C1018.88 151.771 1019.06 152.523 1019.06 153.376ZM1017.16 152.8C1017.15 152.128 1016.91 151.589 1016.44 151.184C1015.97 150.779 1015.39 150.576 1014.69 150.576C1014.06 150.576 1013.53 150.779 1013.08 151.184C1012.63 151.579 1012.36 152.117 1012.28 152.8H1017.16ZM1024.06 158.144C1023.36 158.144 1022.74 158.021 1022.18 157.776C1021.64 157.52 1021.21 157.179 1020.89 156.752C1020.57 156.315 1020.4 155.829 1020.38 155.296H1022.26C1022.3 155.669 1022.47 155.984 1022.79 156.24C1023.12 156.485 1023.53 156.608 1024.02 156.608C1024.54 156.608 1024.93 156.512 1025.21 156.32C1025.5 156.117 1025.64 155.861 1025.64 155.552C1025.64 155.221 1025.48 154.976 1025.16 154.816C1024.85 154.656 1024.35 154.48 1023.67 154.288C1023.01 154.107 1022.47 153.931 1022.06 153.76C1021.64 153.589 1021.28 153.328 1020.97 152.976C1020.67 152.624 1020.52 152.16 1020.52 151.584C1020.52 151.115 1020.66 150.688 1020.94 150.304C1021.21 149.909 1021.61 149.6 1022.12 149.376C1022.64 149.152 1023.24 149.04 1023.91 149.04C1024.91 149.04 1025.72 149.296 1026.33 149.808C1026.95 150.309 1027.28 150.997 1027.32 151.872H1025.5C1025.46 151.477 1025.3 151.163 1025.02 150.928C1024.73 150.693 1024.34 150.576 1023.85 150.576C1023.37 150.576 1023 150.667 1022.74 150.848C1022.49 151.029 1022.36 151.269 1022.36 151.568C1022.36 151.803 1022.45 152 1022.62 152.16C1022.79 152.32 1022.99 152.448 1023.24 152.544C1023.49 152.629 1023.85 152.741 1024.33 152.88C1024.97 153.051 1025.49 153.227 1025.9 153.408C1026.31 153.579 1026.67 153.835 1026.97 154.176C1027.27 154.517 1027.42 154.971 1027.43 155.536C1027.43 156.037 1027.29 156.485 1027.02 156.88C1026.74 157.275 1026.34 157.584 1025.83 157.808C1025.33 158.032 1024.74 158.144 1024.06 158.144ZM1037.48 153.376C1037.48 153.707 1037.46 154.005 1037.42 154.272H1030.68C1030.74 154.976 1031 155.541 1031.47 155.968C1031.94 156.395 1032.51 156.608 1033.2 156.608C1034.18 156.608 1034.87 156.197 1035.28 155.376H1037.24C1036.98 156.187 1036.49 156.853 1035.79 157.376C1035.09 157.888 1034.23 158.144 1033.2 158.144C1032.35 158.144 1031.6 157.957 1030.92 157.584C1030.26 157.2 1029.74 156.667 1029.36 155.984C1028.98 155.291 1028.8 154.491 1028.8 153.584C1028.8 152.677 1028.98 151.883 1029.34 151.2C1029.71 150.507 1030.23 149.973 1030.89 149.6C1031.56 149.227 1032.33 149.04 1033.2 149.04C1034.03 149.04 1034.77 149.221 1035.42 149.584C1036.07 149.947 1036.58 150.459 1036.94 151.12C1037.3 151.771 1037.48 152.523 1037.48 153.376ZM1035.58 152.8C1035.57 152.128 1035.33 151.589 1034.86 151.184C1034.39 150.779 1033.81 150.576 1033.12 150.576C1032.49 150.576 1031.95 150.779 1031.5 151.184C1031.05 151.579 1030.78 152.117 1030.7 152.8H1035.58ZM1043.73 149.04C1044.42 149.04 1045.04 149.184 1045.58 149.472C1046.14 149.76 1046.57 150.187 1046.88 150.752C1047.19 151.317 1047.34 152 1047.34 152.8V158H1045.53V153.072C1045.53 152.283 1045.34 151.68 1044.94 151.264C1044.55 150.837 1044.01 150.624 1043.33 150.624C1042.64 150.624 1042.1 150.837 1041.69 151.264C1041.3 151.68 1041.1 152.283 1041.1 153.072V158H1039.28V149.184H1041.1V150.192C1041.4 149.829 1041.78 149.547 1042.24 149.344C1042.71 149.141 1043.2 149.04 1043.73 149.04ZM1053.08 156.368L1055.57 149.184H1057.51L1054.15 158H1051.97L1048.63 149.184H1050.58L1053.08 156.368ZM1062.71 158.144C1061.88 158.144 1061.13 157.957 1060.46 157.584C1059.78 157.2 1059.26 156.667 1058.87 155.984C1058.49 155.291 1058.3 154.491 1058.3 153.584C1058.3 152.688 1058.49 151.893 1058.89 151.2C1059.28 150.507 1059.82 149.973 1060.5 149.6C1061.19 149.227 1061.95 149.04 1062.79 149.04C1063.63 149.04 1064.4 149.227 1065.08 149.6C1065.76 149.973 1066.3 150.507 1066.7 151.2C1067.09 151.893 1067.29 152.688 1067.29 153.584C1067.29 154.48 1067.08 155.275 1066.68 155.968C1066.27 156.661 1065.72 157.2 1065.02 157.584C1064.32 157.957 1063.55 158.144 1062.71 158.144ZM1062.71 156.56C1063.18 156.56 1063.62 156.448 1064.02 156.224C1064.44 156 1064.78 155.664 1065.03 155.216C1065.29 154.768 1065.42 154.224 1065.42 153.584C1065.42 152.944 1065.29 152.405 1065.05 151.968C1064.8 151.52 1064.48 151.184 1064.07 150.96C1063.67 150.736 1063.23 150.624 1062.76 150.624C1062.29 150.624 1061.85 150.736 1061.45 150.96C1061.05 151.184 1060.74 151.52 1060.5 151.968C1060.27 152.405 1060.15 152.944 1060.15 153.584C1060.15 154.533 1060.39 155.269 1060.87 155.792C1061.36 156.304 1061.98 156.56 1062.71 156.56ZM1070.91 146.16V158H1069.09V146.16H1070.91ZM1076.72 156.368L1079.21 149.184H1081.15L1077.79 158H1075.61L1072.27 149.184H1074.22L1076.72 156.368ZM1083.46 148.016C1083.13 148.016 1082.85 147.904 1082.62 147.68C1082.4 147.456 1082.29 147.179 1082.29 146.848C1082.29 146.517 1082.4 146.24 1082.62 146.016C1082.85 145.792 1083.13 145.68 1083.46 145.68C1083.78 145.68 1084.05 145.792 1084.27 146.016C1084.5 146.24 1084.61 146.517 1084.61 146.848C1084.61 147.179 1084.5 147.456 1084.27 147.68C1084.05 147.904 1083.78 148.016 1083.46 148.016ZM1084.35 149.184V158H1082.53V149.184H1084.35ZM1097.42 149.04C1098.11 149.04 1098.73 149.184 1099.27 149.472C1099.83 149.76 1100.26 150.187 1100.57 150.752C1100.89 151.317 1101.05 152 1101.05 152.8V158H1099.24V153.072C1099.24 152.283 1099.05 151.68 1098.65 151.264C1098.26 150.837 1097.72 150.624 1097.03 150.624C1096.35 150.624 1095.81 150.837 1095.4 151.264C1095.01 151.68 1094.81 152.283 1094.81 153.072V158H1093V153.072C1093 152.283 1092.81 151.68 1092.41 151.264C1092.02 150.837 1091.48 150.624 1090.79 150.624C1090.11 150.624 1089.57 150.837 1089.16 151.264C1088.77 151.68 1088.57 152.283 1088.57 153.072V158H1086.75V149.184H1088.57V150.192C1088.87 149.829 1089.25 149.547 1089.71 149.344C1090.17 149.141 1090.66 149.04 1091.18 149.04C1091.88 149.04 1092.51 149.189 1093.07 149.488C1093.62 149.787 1094.05 150.219 1094.35 150.784C1094.61 150.251 1095.03 149.829 1095.59 149.52C1096.16 149.2 1096.77 149.04 1097.42 149.04ZM1111.45 153.376C1111.45 153.707 1111.43 154.005 1111.39 154.272H1104.65C1104.71 154.976 1104.97 155.541 1105.44 155.968C1105.91 156.395 1106.48 156.608 1107.16 156.608C1108.15 156.608 1108.84 156.197 1109.24 155.376H1111.21C1110.95 156.187 1110.46 156.853 1109.76 157.376C1109.06 157.888 1108.2 158.144 1107.16 158.144C1106.32 158.144 1105.56 157.957 1104.89 157.584C1104.23 157.2 1103.71 156.667 1103.32 155.984C1102.95 155.291 1102.76 154.491 1102.76 153.584C1102.76 152.677 1102.95 151.883 1103.31 151.2C1103.68 150.507 1104.2 149.973 1104.86 149.6C1105.53 149.227 1106.3 149.04 1107.16 149.04C1108 149.04 1108.74 149.221 1109.39 149.584C1110.04 149.947 1110.55 150.459 1110.91 151.12C1111.27 151.771 1111.45 152.523 1111.45 153.376ZM1109.55 152.8C1109.54 152.128 1109.3 151.589 1108.83 151.184C1108.36 150.779 1107.78 150.576 1107.08 150.576C1106.45 150.576 1105.92 150.779 1105.47 151.184C1105.02 151.579 1104.75 152.117 1104.67 152.8H1109.55ZM1117.69 149.04C1118.39 149.04 1119.01 149.184 1119.55 149.472C1120.11 149.76 1120.54 150.187 1120.85 150.752C1121.16 151.317 1121.31 152 1121.31 152.8V158H1119.5V153.072C1119.5 152.283 1119.31 151.68 1118.91 151.264C1118.52 150.837 1117.98 150.624 1117.29 150.624C1116.61 150.624 1116.07 150.837 1115.66 151.264C1115.27 151.68 1115.07 152.283 1115.07 153.072V158H1113.25V149.184H1115.07V150.192C1115.37 149.829 1115.75 149.547 1116.21 149.344C1116.68 149.141 1117.17 149.04 1117.69 149.04ZM1125.77 150.672V155.552C1125.77 155.883 1125.84 156.123 1125.99 156.272C1126.15 156.411 1126.42 156.48 1126.79 156.48H1127.91V158H1126.47C1125.65 158 1125.02 157.808 1124.58 157.424C1124.14 157.04 1123.93 156.416 1123.93 155.552V150.672H1122.89V149.184H1123.93V146.992H1125.77V149.184H1127.91V150.672H1125.77ZM1133.41 158.144C1132.58 158.144 1131.83 157.957 1131.16 157.584C1130.49 157.2 1129.96 156.667 1129.57 155.984C1129.19 155.291 1129 154.491 1129 153.584C1129 152.688 1129.2 151.893 1129.59 151.2C1129.99 150.507 1130.52 149.973 1131.21 149.6C1131.89 149.227 1132.65 149.04 1133.49 149.04C1134.34 149.04 1135.1 149.227 1135.78 149.6C1136.47 149.973 1137 150.507 1137.4 151.2C1137.79 151.893 1137.99 152.688 1137.99 153.584C1137.99 154.48 1137.79 155.275 1137.38 155.968C1136.98 156.661 1136.42 157.2 1135.72 157.584C1135.03 157.957 1134.26 158.144 1133.41 158.144ZM1133.41 156.56C1133.88 156.56 1134.32 156.448 1134.73 156.224C1135.14 156 1135.48 155.664 1135.73 155.216C1135.99 154.768 1136.12 154.224 1136.12 153.584C1136.12 152.944 1136 152.405 1135.75 151.968C1135.51 151.52 1135.18 151.184 1134.77 150.96C1134.37 150.736 1133.93 150.624 1133.46 150.624C1132.99 150.624 1132.56 150.736 1132.15 150.96C1131.76 151.184 1131.44 151.52 1131.21 151.968C1130.97 152.405 1130.85 152.944 1130.85 153.584C1130.85 154.533 1131.09 155.269 1131.57 155.792C1132.07 156.304 1132.68 156.56 1133.41 156.56ZM1142.08 146.88L1141.87 154.64H1140.35L1140.15 146.88H1142.08ZM1141.17 158.112C1140.84 158.112 1140.56 158 1140.34 157.776C1140.11 157.552 1140 157.275 1140 156.944C1140 156.613 1140.11 156.336 1140.34 156.112C1140.56 155.888 1140.84 155.776 1141.17 155.776C1141.49 155.776 1141.76 155.888 1141.99 156.112C1142.21 156.336 1142.32 156.613 1142.32 156.944C1142.32 157.275 1142.21 157.552 1141.99 157.776C1141.76 158 1141.49 158.112 1141.17 158.112Z" fill="white"/>
<g clip-path="url(#clip1_113_1677)">
<path d="M740 220H739.21L738.93 219.73C739.91 218.59 740.5 217.11 740.5 215.5C740.5 211.91 737.59 209 734 209C730.41 209 727.5 211.91 727.5 215.5C727.5 219.09 730.41 222 734 222C735.61 222 737.09 221.41 738.23 220.43L738.5 220.71V221.5L743.5 226.49L744.99 225L740 220ZM734 220C731.51 220 729.5 217.99 729.5 215.5C729.5 213.01 731.51 211 734 211C736.49 211 738.5 213.01 738.5 215.5C738.5 217.99 736.49 220 734 220Z" fill="white"/>
</g>
<path d="M768.676 226.112L766.452 223.888C765.908 224.037 765.353 224.112 764.788 224.112C763.753 224.112 762.809 223.872 761.956 223.392C761.103 222.901 760.425 222.224 759.924 221.36C759.433 220.485 759.188 219.504 759.188 218.416C759.188 217.328 759.433 216.352 759.924 215.488C760.425 214.613 761.103 213.936 761.956 213.456C762.809 212.965 763.753 212.72 764.788 212.72C765.833 212.72 766.783 212.965 767.636 213.456C768.489 213.936 769.161 214.608 769.652 215.472C770.143 216.336 770.388 217.317 770.388 218.416C770.388 219.483 770.153 220.443 769.684 221.296C769.215 222.149 768.569 222.821 767.748 223.312L770.564 226.112H768.676ZM760.676 218.416C760.676 219.301 760.852 220.08 761.204 220.752C761.567 221.424 762.057 221.941 762.676 222.304C763.305 222.667 764.009 222.848 764.788 222.848C765.567 222.848 766.265 222.667 766.884 222.304C767.513 221.941 768.004 221.424 768.356 220.752C768.719 220.08 768.9 219.301 768.9 218.416C768.9 217.52 768.719 216.741 768.356 216.08C768.004 215.408 767.519 214.891 766.9 214.528C766.281 214.165 765.577 213.984 764.788 213.984C763.999 213.984 763.295 214.165 762.676 214.528C762.057 214.891 761.567 215.408 761.204 216.08C760.852 216.741 760.676 217.52 760.676 218.416ZM780.117 215.232V224H778.661V222.704C778.384 223.152 777.995 223.504 777.493 223.76C777.003 224.005 776.459 224.128 775.861 224.128C775.179 224.128 774.565 223.989 774.021 223.712C773.477 223.424 773.045 222.997 772.725 222.432C772.416 221.867 772.261 221.179 772.261 220.368V215.232H773.701V220.176C773.701 221.04 773.92 221.707 774.357 222.176C774.795 222.635 775.392 222.864 776.149 222.864C776.928 222.864 777.541 222.624 777.989 222.144C778.437 221.664 778.661 220.965 778.661 220.048V215.232H780.117ZM782.032 219.584C782.032 218.688 782.213 217.904 782.576 217.232C782.938 216.549 783.434 216.021 784.064 215.648C784.704 215.275 785.413 215.088 786.192 215.088C786.96 215.088 787.626 215.253 788.192 215.584C788.757 215.915 789.178 216.331 789.456 216.832V215.232H790.928V224H789.456V222.368C789.168 222.88 788.736 223.307 788.16 223.648C787.594 223.979 786.933 224.144 786.176 224.144C785.397 224.144 784.693 223.952 784.064 223.568C783.434 223.184 782.938 222.645 782.576 221.952C782.213 221.259 782.032 220.469 782.032 219.584ZM789.456 219.6C789.456 218.939 789.322 218.363 789.056 217.872C788.789 217.381 788.426 217.008 787.968 216.752C787.52 216.485 787.024 216.352 786.48 216.352C785.936 216.352 785.44 216.48 784.992 216.736C784.544 216.992 784.186 217.365 783.92 217.856C783.653 218.347 783.52 218.923 783.52 219.584C783.52 220.256 783.653 220.843 783.92 221.344C784.186 221.835 784.544 222.213 784.992 222.48C785.44 222.736 785.936 222.864 786.48 222.864C787.024 222.864 787.52 222.736 787.968 222.48C788.426 222.213 788.789 221.835 789.056 221.344C789.322 220.843 789.456 220.261 789.456 219.6ZM794.844 212.16V224H793.388V212.16H794.844ZM804.695 224.144C804.023 224.144 803.421 224.032 802.887 223.808C802.354 223.573 801.933 223.253 801.623 222.848C801.314 222.432 801.143 221.957 801.111 221.424H802.615C802.658 221.861 802.861 222.219 803.223 222.496C803.597 222.773 804.082 222.912 804.679 222.912C805.234 222.912 805.671 222.789 805.991 222.544C806.311 222.299 806.471 221.989 806.471 221.616C806.471 221.232 806.301 220.949 805.959 220.768C805.618 220.576 805.09 220.389 804.375 220.208C803.725 220.037 803.191 219.867 802.775 219.696C802.37 219.515 802.018 219.253 801.719 218.912C801.431 218.56 801.287 218.101 801.287 217.536C801.287 217.088 801.421 216.677 801.687 216.304C801.954 215.931 802.333 215.637 802.823 215.424C803.314 215.2 803.874 215.088 804.503 215.088C805.474 215.088 806.258 215.333 806.855 215.824C807.453 216.315 807.773 216.987 807.815 217.84H806.359C806.327 217.381 806.141 217.013 805.799 216.736C805.469 216.459 805.021 216.32 804.455 216.32C803.933 216.32 803.517 216.432 803.207 216.656C802.898 216.88 802.743 217.173 802.743 217.536C802.743 217.824 802.834 218.064 803.015 218.256C803.207 218.437 803.442 218.587 803.719 218.704C804.007 218.811 804.402 218.933 804.903 219.072C805.533 219.243 806.045 219.413 806.439 219.584C806.834 219.744 807.17 219.989 807.447 220.32C807.735 220.651 807.885 221.083 807.895 221.616C807.895 222.096 807.762 222.528 807.495 222.912C807.229 223.296 806.85 223.6 806.359 223.824C805.879 224.037 805.325 224.144 804.695 224.144ZM817.951 219.28C817.951 219.557 817.935 219.851 817.903 220.16H810.895C810.948 221.024 811.241 221.701 811.775 222.192C812.319 222.672 812.975 222.912 813.743 222.912C814.372 222.912 814.895 222.768 815.311 222.48C815.737 222.181 816.036 221.787 816.207 221.296H817.775C817.54 222.139 817.071 222.827 816.367 223.36C815.663 223.883 814.788 224.144 813.743 224.144C812.911 224.144 812.164 223.957 811.503 223.584C810.852 223.211 810.34 222.683 809.967 222C809.593 221.307 809.407 220.507 809.407 219.6C809.407 218.693 809.588 217.899 809.951 217.216C810.313 216.533 810.82 216.011 811.471 215.648C812.132 215.275 812.889 215.088 813.743 215.088C814.575 215.088 815.311 215.269 815.951 215.632C816.591 215.995 817.081 216.496 817.423 217.136C817.775 217.765 817.951 218.48 817.951 219.28ZM816.447 218.976C816.447 218.421 816.324 217.947 816.079 217.552C815.833 217.147 815.497 216.843 815.071 216.64C814.655 216.427 814.191 216.32 813.679 216.32C812.943 216.32 812.313 216.555 811.791 217.024C811.279 217.493 810.985 218.144 810.911 218.976H816.447ZM821.329 216.656C821.585 216.155 821.947 215.765 822.417 215.488C822.897 215.211 823.478 215.072 824.161 215.072V216.576H823.777C822.145 216.576 821.329 217.461 821.329 219.232V224H819.873V215.232H821.329V216.656ZM825.297 219.584C825.297 218.688 825.479 217.904 825.841 217.232C826.204 216.549 826.7 216.021 827.329 215.648C827.969 215.275 828.679 215.088 829.457 215.088C830.225 215.088 830.892 215.253 831.457 215.584C832.023 215.915 832.444 216.331 832.721 216.832V215.232H834.193V224H832.721V222.368C832.433 222.88 832.001 223.307 831.425 223.648C830.86 223.979 830.199 224.144 829.441 224.144C828.663 224.144 827.959 223.952 827.329 223.568C826.7 223.184 826.204 222.645 825.841 221.952C825.479 221.259 825.297 220.469 825.297 219.584ZM832.721 219.6C832.721 218.939 832.588 218.363 832.321 217.872C832.055 217.381 831.692 217.008 831.233 216.752C830.785 216.485 830.289 216.352 829.745 216.352C829.201 216.352 828.705 216.48 828.257 216.736C827.809 216.992 827.452 217.365 827.185 217.856C826.919 218.347 826.785 218.923 826.785 219.584C826.785 220.256 826.919 220.843 827.185 221.344C827.452 221.835 827.809 222.213 828.257 222.48C828.705 222.736 829.201 222.864 829.745 222.864C830.289 222.864 830.785 222.736 831.233 222.48C831.692 222.213 832.055 221.835 832.321 221.344C832.588 220.843 832.721 220.261 832.721 219.6ZM831.585 212.752L828.177 214.576V213.488L831.585 211.488V212.752ZM844.024 224.144C843.352 224.144 842.749 224.032 842.216 223.808C841.682 223.573 841.261 223.253 840.952 222.848C840.642 222.432 840.472 221.957 840.44 221.424H841.944C841.986 221.861 842.189 222.219 842.552 222.496C842.925 222.773 843.41 222.912 844.008 222.912C844.562 222.912 845 222.789 845.32 222.544C845.64 222.299 845.8 221.989 845.8 221.616C845.8 221.232 845.629 220.949 845.288 220.768C844.946 220.576 844.418 220.389 843.704 220.208C843.053 220.037 842.52 219.867 842.104 219.696C841.698 219.515 841.346 219.253 841.048 218.912C840.76 218.56 840.616 218.101 840.616 217.536C840.616 217.088 840.749 216.677 841.016 216.304C841.282 215.931 841.661 215.637 842.152 215.424C842.642 215.2 843.202 215.088 843.832 215.088C844.802 215.088 845.586 215.333 846.184 215.824C846.781 216.315 847.101 216.987 847.144 217.84H845.688C845.656 217.381 845.469 217.013 845.128 216.736C844.797 216.459 844.349 216.32 843.784 216.32C843.261 216.32 842.845 216.432 842.536 216.656C842.226 216.88 842.072 217.173 842.072 217.536C842.072 217.824 842.162 218.064 842.344 218.256C842.536 218.437 842.77 218.587 843.048 218.704C843.336 218.811 843.73 218.933 844.232 219.072C844.861 219.243 845.373 219.413 845.768 219.584C846.162 219.744 846.498 219.989 846.776 220.32C847.064 220.651 847.213 221.083 847.224 221.616C847.224 222.096 847.09 222.528 846.824 222.912C846.557 223.296 846.178 223.6 845.688 223.824C845.208 224.037 844.653 224.144 844.024 224.144ZM857.055 215.232V224H855.599V222.704C855.322 223.152 854.932 223.504 854.431 223.76C853.94 224.005 853.396 224.128 852.799 224.128C852.116 224.128 851.503 223.989 850.959 223.712C850.415 223.424 849.983 222.997 849.663 222.432C849.354 221.867 849.199 221.179 849.199 220.368V215.232H850.639V220.176C850.639 221.04 850.858 221.707 851.295 222.176C851.732 222.635 852.33 222.864 853.087 222.864C853.866 222.864 854.479 222.624 854.927 222.144C855.375 221.664 855.599 220.965 855.599 220.048V215.232H857.055ZM858.969 219.584C858.969 218.688 859.151 217.904 859.513 217.232C859.876 216.549 860.372 216.021 861.001 215.648C861.641 215.275 862.351 215.088 863.129 215.088C863.897 215.088 864.564 215.253 865.129 215.584C865.695 215.915 866.116 216.331 866.393 216.832V215.232H867.865V224H866.393V222.368C866.105 222.88 865.673 223.307 865.097 223.648C864.532 223.979 863.871 224.144 863.113 224.144C862.335 224.144 861.631 223.952 861.001 223.568C860.372 223.184 859.876 222.645 859.513 221.952C859.151 221.259 858.969 220.469 858.969 219.584ZM866.393 219.6C866.393 218.939 866.26 218.363 865.993 217.872C865.727 217.381 865.364 217.008 864.905 216.752C864.457 216.485 863.961 216.352 863.417 216.352C862.873 216.352 862.377 216.48 861.929 216.736C861.481 216.992 861.124 217.365 860.857 217.856C860.591 218.347 860.457 218.923 860.457 219.584C860.457 220.256 860.591 220.843 860.857 221.344C861.124 221.835 861.481 222.213 861.929 222.48C862.377 222.736 862.873 222.864 863.417 222.864C863.961 222.864 864.457 222.736 864.905 222.48C865.364 222.213 865.727 221.835 865.993 221.344C866.26 220.843 866.393 220.261 866.393 219.6ZM876.047 216.848C876.335 216.347 876.762 215.931 877.327 215.6C877.903 215.259 878.57 215.088 879.327 215.088C880.106 215.088 880.81 215.275 881.439 215.648C882.079 216.021 882.581 216.549 882.943 217.232C883.306 217.904 883.487 218.688 883.487 219.584C883.487 220.469 883.306 221.259 882.943 221.952C882.581 222.645 882.079 223.184 881.439 223.568C880.81 223.952 880.106 224.144 879.327 224.144C878.581 224.144 877.919 223.979 877.343 223.648C876.778 223.307 876.346 222.885 876.047 222.384V228.16H874.591V215.232H876.047V216.848ZM881.999 219.584C881.999 218.923 881.866 218.347 881.599 217.856C881.333 217.365 880.97 216.992 880.511 216.736C880.063 216.48 879.567 216.352 879.023 216.352C878.49 216.352 877.994 216.485 877.535 216.752C877.087 217.008 876.725 217.387 876.447 217.888C876.181 218.379 876.047 218.949 876.047 219.6C876.047 220.261 876.181 220.843 876.447 221.344C876.725 221.835 877.087 222.213 877.535 222.48C877.994 222.736 878.49 222.864 879.023 222.864C879.567 222.864 880.063 222.736 880.511 222.48C880.97 222.213 881.333 221.835 881.599 221.344C881.866 220.843 881.999 220.256 881.999 219.584ZM886.86 216.656C887.116 216.155 887.479 215.765 887.948 215.488C888.428 215.211 889.009 215.072 889.692 215.072V216.576H889.308C887.676 216.576 886.86 217.461 886.86 219.232V224H885.404V215.232H886.86V216.656ZM895.197 224.144C894.375 224.144 893.629 223.957 892.957 223.584C892.295 223.211 891.773 222.683 891.389 222C891.015 221.307 890.829 220.507 890.829 219.6C890.829 218.704 891.021 217.915 891.405 217.232C891.799 216.539 892.333 216.011 893.005 215.648C893.677 215.275 894.429 215.088 895.261 215.088C896.093 215.088 896.845 215.275 897.517 215.648C898.189 216.011 898.717 216.533 899.101 217.216C899.495 217.899 899.693 218.693 899.693 219.6C899.693 220.507 899.49 221.307 899.085 222C898.69 222.683 898.151 223.211 897.469 223.584C896.786 223.957 896.029 224.144 895.197 224.144ZM895.197 222.864C895.719 222.864 896.21 222.741 896.669 222.496C897.127 222.251 897.495 221.883 897.773 221.392C898.061 220.901 898.205 220.304 898.205 219.6C898.205 218.896 898.066 218.299 897.789 217.808C897.511 217.317 897.149 216.955 896.701 216.72C896.253 216.475 895.767 216.352 895.245 216.352C894.711 216.352 894.221 216.475 893.773 216.72C893.335 216.955 892.983 217.317 892.717 217.808C892.45 218.299 892.317 218.896 892.317 219.6C892.317 220.315 892.445 220.917 892.701 221.408C892.967 221.899 893.319 222.267 893.757 222.512C894.194 222.747 894.674 222.864 895.197 222.864ZM896.829 212.64L893.421 214.464V213.376L896.829 211.376V212.64ZM906.183 224L904.103 220.736L902.103 224H900.583L903.415 219.648L900.583 215.232H902.231L904.311 218.48L906.295 215.232H907.815L904.999 219.568L907.831 224H906.183ZM910.015 213.808C909.738 213.808 909.503 213.712 909.311 213.52C909.119 213.328 909.023 213.093 909.023 212.816C909.023 212.539 909.119 212.304 909.311 212.112C909.503 211.92 909.738 211.824 910.015 211.824C910.282 211.824 910.506 211.92 910.687 212.112C910.879 212.304 910.975 212.539 910.975 212.816C910.975 213.093 910.879 213.328 910.687 213.52C910.506 213.712 910.282 213.808 910.015 213.808ZM910.719 215.232V224H909.263V215.232H910.719ZM923.745 215.072C924.427 215.072 925.035 215.216 925.569 215.504C926.102 215.781 926.523 216.203 926.833 216.768C927.142 217.333 927.297 218.021 927.297 218.832V224H925.857V219.04C925.857 218.165 925.638 217.499 925.201 217.04C924.774 216.571 924.193 216.336 923.457 216.336C922.699 216.336 922.097 216.581 921.649 217.072C921.201 217.552 920.977 218.251 920.977 219.168V224H919.537V219.04C919.537 218.165 919.318 217.499 918.881 217.04C918.454 216.571 917.873 216.336 917.137 216.336C916.379 216.336 915.777 216.581 915.329 217.072C914.881 217.552 914.657 218.251 914.657 219.168V224H913.201V215.232H914.657V216.496C914.945 216.037 915.329 215.685 915.809 215.44C916.299 215.195 916.838 215.072 917.425 215.072C918.161 215.072 918.811 215.237 919.377 215.568C919.942 215.899 920.363 216.384 920.641 217.024C920.886 216.405 921.291 215.925 921.857 215.584C922.422 215.243 923.051 215.072 923.745 215.072ZM929.141 219.584C929.141 218.688 929.322 217.904 929.685 217.232C930.048 216.549 930.544 216.021 931.173 215.648C931.813 215.275 932.522 215.088 933.301 215.088C934.069 215.088 934.736 215.253 935.301 215.584C935.866 215.915 936.288 216.331 936.565 216.832V215.232H938.037V224H936.565V222.368C936.277 222.88 935.845 223.307 935.269 223.648C934.704 223.979 934.042 224.144 933.285 224.144C932.506 224.144 931.802 223.952 931.173 223.568C930.544 223.184 930.048 222.645 929.685 221.952C929.322 221.259 929.141 220.469 929.141 219.584ZM936.565 219.6C936.565 218.939 936.432 218.363 936.165 217.872C935.898 217.381 935.536 217.008 935.077 216.752C934.629 216.485 934.133 216.352 933.589 216.352C933.045 216.352 932.549 216.48 932.101 216.736C931.653 216.992 931.296 217.365 931.029 217.856C930.762 218.347 930.629 218.923 930.629 219.584C930.629 220.256 930.762 220.843 931.029 221.344C931.296 221.835 931.653 222.213 932.101 222.48C932.549 222.736 933.045 222.864 933.589 222.864C934.133 222.864 934.629 222.736 935.077 222.48C935.536 222.213 935.898 221.835 936.165 221.344C936.432 220.843 936.565 220.261 936.565 219.6ZM946.219 212.16V224H944.763V212.16H946.219ZM956.701 219.28C956.701 219.557 956.685 219.851 956.653 220.16H949.645C949.698 221.024 949.991 221.701 950.525 222.192C951.069 222.672 951.725 222.912 952.493 222.912C953.122 222.912 953.645 222.768 954.061 222.48C954.487 222.181 954.786 221.787 954.957 221.296H956.525C956.29 222.139 955.821 222.827 955.117 223.36C954.413 223.883 953.538 224.144 952.493 224.144C951.661 224.144 950.914 223.957 950.253 223.584C949.602 223.211 949.09 222.683 948.717 222C948.343 221.307 948.157 220.507 948.157 219.6C948.157 218.693 948.338 217.899 948.701 217.216C949.063 216.533 949.57 216.011 950.221 215.648C950.882 215.275 951.639 215.088 952.493 215.088C953.325 215.088 954.061 215.269 954.701 215.632C955.341 215.995 955.831 216.496 956.173 217.136C956.525 217.765 956.701 218.48 956.701 219.28ZM955.197 218.976C955.197 218.421 955.074 217.947 954.829 217.552C954.583 217.147 954.247 216.843 953.821 216.64C953.405 216.427 952.941 216.32 952.429 216.32C951.693 216.32 951.063 216.555 950.541 217.024C950.029 217.493 949.735 218.144 949.661 218.976H955.197ZM959.375 213.808C959.097 213.808 958.863 213.712 958.671 213.52C958.479 213.328 958.383 213.093 958.383 212.816C958.383 212.539 958.479 212.304 958.671 212.112C958.863 211.92 959.097 211.824 959.375 211.824C959.641 211.824 959.865 211.92 960.047 212.112C960.239 212.304 960.335 212.539 960.335 212.816C960.335 213.093 960.239 213.328 960.047 213.52C959.865 213.712 959.641 213.808 959.375 213.808ZM960.079 215.232V224H958.623V215.232H960.079ZM964.336 216.432V221.6C964.336 222.027 964.427 222.331 964.608 222.512C964.789 222.683 965.104 222.768 965.552 222.768H966.624V224H965.312C964.501 224 963.893 223.813 963.488 223.44C963.083 223.067 962.88 222.453 962.88 221.6V216.432H961.744V215.232H962.88V213.024H964.336V215.232H966.624V216.432H964.336ZM976.164 215.232V224H974.708V222.704C974.431 223.152 974.042 223.504 973.54 223.76C973.05 224.005 972.506 224.128 971.908 224.128C971.226 224.128 970.612 223.989 970.068 223.712C969.524 223.424 969.092 222.997 968.772 222.432C968.463 221.867 968.308 221.179 968.308 220.368V215.232H969.748V220.176C969.748 221.04 969.967 221.707 970.404 222.176C970.842 222.635 971.439 222.864 972.196 222.864C972.975 222.864 973.588 222.624 974.036 222.144C974.484 221.664 974.708 220.965 974.708 220.048V215.232H976.164ZM980.079 216.656C980.335 216.155 980.697 215.765 981.167 215.488C981.647 215.211 982.228 215.072 982.911 215.072V216.576H982.527C980.895 216.576 980.079 217.461 980.079 219.232V224H978.623V215.232H980.079V216.656ZM984.047 219.584C984.047 218.688 984.229 217.904 984.591 217.232C984.954 216.549 985.45 216.021 986.079 215.648C986.719 215.275 987.429 215.088 988.207 215.088C988.975 215.088 989.642 215.253 990.207 215.584C990.773 215.915 991.194 216.331 991.471 216.832V215.232H992.943V224H991.471V222.368C991.183 222.88 990.751 223.307 990.175 223.648C989.61 223.979 988.949 224.144 988.191 224.144C987.413 224.144 986.709 223.952 986.079 223.568C985.45 223.184 984.954 222.645 984.591 221.952C984.229 221.259 984.047 220.469 984.047 219.584ZM991.471 219.6C991.471 218.939 991.338 218.363 991.071 217.872C990.805 217.381 990.442 217.008 989.983 216.752C989.535 216.485 989.039 216.352 988.495 216.352C987.951 216.352 987.455 216.48 987.007 216.736C986.559 216.992 986.202 217.365 985.935 217.856C985.669 218.347 985.535 218.923 985.535 219.584C985.535 220.256 985.669 220.843 985.935 221.344C986.202 221.835 986.559 222.213 987.007 222.48C987.455 222.736 987.951 222.864 988.495 222.864C989.039 222.864 989.535 222.736 989.983 222.48C990.442 222.213 990.805 221.835 991.071 221.344C991.338 220.843 991.471 220.261 991.471 219.6ZM998.252 212.704C999.308 212.704 1000.16 213.003 1000.81 213.6C1001.46 214.197 1001.79 214.997 1001.79 216C1001.79 217.12 1001.44 217.952 1000.75 218.496C1000.05 219.029 999.116 219.296 997.932 219.296L997.884 220.816H996.62L996.556 218.288H997.02C998.076 218.288 998.903 218.128 999.5 217.808C1000.1 217.488 1000.4 216.885 1000.4 216C1000.4 215.36 1000.2 214.853 999.82 214.48C999.436 214.107 998.919 213.92 998.268 213.92C997.607 213.92 997.084 214.101 996.7 214.464C996.327 214.816 996.14 215.301 996.14 215.92H994.764C994.764 215.28 994.908 214.72 995.196 214.24C995.484 213.749 995.889 213.371 996.412 213.104C996.945 212.837 997.559 212.704 998.252 212.704ZM997.244 224.096C996.967 224.096 996.732 224 996.54 223.808C996.348 223.616 996.252 223.381 996.252 223.104C996.252 222.827 996.348 222.592 996.54 222.4C996.732 222.208 996.967 222.112 997.244 222.112C997.511 222.112 997.735 222.208 997.916 222.4C998.108 222.592 998.204 222.827 998.204 223.104C998.204 223.381 998.108 223.616 997.916 223.808C997.735 224 997.511 224.096 997.244 224.096Z" fill="white"/>
<rect x="571.5" y="190.5" width="585" height="55" rx="23.5" stroke="white"/>
</g>
<defs>
<filter id="filter0_f_113_1677" x="-11.5166" y="18.4303" width="1898.87" height="230.094" filterUnits="userSpaceOnUse" color-interpolation-filters="sRGB">
<feFlood flood-opacity="0" result="BackgroundImageFix"/>
<feBlend mode="normal" in="SourceGraphic" in2="BackgroundImageFix" result="shape"/>
<feGaussianBlur stdDeviation="5.5" result="effect1_foregroundBlur_113_1677"/>
</filter>
<filter id="filter1_f_113_1677" x="3.16309" y="-127.992" width="1875.37" height="331.68" filterUnits="userSpaceOnUse" color-interpolation-filters="sRGB">
<feFlood flood-opacity="0" result="BackgroundImageFix"/>
<feBlend mode="normal" in="SourceGraphic" in2="BackgroundImageFix" result="shape"/>
<feGaussianBlur stdDeviation="4" result="effect1_foregroundBlur_113_1677"/>
</filter>
<filter id="filter2_f_113_1677" x="-98.2715" y="27.9941" width="1920.46" height="154.196" filterUnits="userSpaceOnUse" color-interpolation-filters="sRGB">
<feFlood flood-opacity="0" result="BackgroundImageFix"/>
<feBlend mode="normal" in="SourceGraphic" in2="BackgroundImageFix" result="shape"/>
<feGaussianBlur stdDeviation="9.5" result="effect1_foregroundBlur_113_1677"/>
</filter>
<linearGradient id="paint0_linear_113_1677" x1="722" y1="-39.6001" x2="2438.35" y2="1150.44" gradientUnits="userSpaceOnUse">
<stop stop-color="#002F52"/>
<stop offset="1" stop-color="#326589"/>
</linearGradient>
<linearGradient id="paint1_linear_113_1677" x1="722" y1="-45.0001" x2="2574" y2="1085" gradientUnits="userSpaceOnUse">
<stop stop-color="#002F52"/>
<stop offset="1" stop-color="#326589"/>
</linearGradient>
<clipPath id="clip0_113_1677">
<rect width="1728" height="330" fill="white"/>
</clipPath>
<clipPath id="clip1_113_1677">
<rect width="24" height="24" fill="white" transform="translate(724.5 206)"/>
</clipPath>
</defs>
</svg>
