<svg width="1728" height="418" viewBox="0 0 1728 418" fill="none" xmlns="http://www.w3.org/2000/svg">
<rect x="-4" width="1732" height="418" fill="url(#paint0_linear_113_1694)"/>
<path d="M610.82 76.632V78.488H604.612V99H602.372V78.488H596.132V76.632H610.82ZM624.405 99.224C622.336 99.224 620.458 98.744 618.773 97.784C617.088 96.8027 615.754 95.448 614.773 93.72C613.813 91.9707 613.333 89.9973 613.333 87.8C613.333 85.6027 613.813 83.64 614.773 81.912C615.754 80.1627 617.088 78.808 618.773 77.848C620.458 76.8667 622.336 76.376 624.405 76.376C626.496 76.376 628.384 76.8667 630.069 77.848C631.754 78.808 633.077 80.1627 634.037 81.912C634.997 83.64 635.477 85.6027 635.477 87.8C635.477 89.9973 634.997 91.9707 634.037 93.72C633.077 95.448 631.754 96.8027 630.069 97.784C628.384 98.744 626.496 99.224 624.405 99.224ZM624.405 97.272C626.069 97.272 627.562 96.888 628.885 96.12C630.208 95.352 631.253 94.2533 632.021 92.824C632.789 91.3733 633.173 89.6987 633.173 87.8C633.173 85.9013 632.789 84.2373 632.021 82.808C631.253 81.3787 630.208 80.28 628.885 79.512C627.562 78.744 626.069 78.36 624.405 78.36C622.741 78.36 621.248 78.744 619.925 79.512C618.602 80.28 617.557 81.3787 616.789 82.808C616.021 84.2373 615.637 85.9013 615.637 87.8C615.637 89.6987 616.021 91.3733 616.789 92.824C617.557 94.2533 618.602 95.352 619.925 96.12C621.248 96.888 622.741 97.272 624.405 97.272ZM627.509 71.768L620.949 75.576V73.848L627.509 69.752V71.768ZM653.88 83.064C653.88 84.984 653.25 86.5307 651.992 87.704C650.733 88.8773 648.845 89.464 646.328 89.464H641.816V99H639.576V76.632H646.328C648.824 76.632 650.701 77.2187 651.96 78.392C653.24 79.5653 653.88 81.1227 653.88 83.064ZM646.328 87.544C649.826 87.544 651.576 86.0507 651.576 83.064C651.576 81.5707 651.16 80.44 650.328 79.672C649.496 78.904 648.162 78.52 646.328 78.52H641.816V87.544H646.328ZM659.878 76.632V99H657.638V76.632H659.878ZM663.927 87.8C663.927 85.6027 664.407 83.64 665.367 81.912C666.327 80.1627 667.639 78.808 669.303 77.848C670.967 76.8667 672.823 76.376 674.871 76.376C677.367 76.376 679.5 76.9733 681.271 78.168C683.063 79.3413 684.364 81.0053 685.175 83.16H682.551C681.911 81.6453 680.929 80.4613 679.607 79.608C678.305 78.7547 676.727 78.328 674.871 78.328C673.228 78.328 671.745 78.712 670.423 79.48C669.121 80.248 668.097 81.3573 667.351 82.808C666.604 84.2373 666.231 85.9013 666.231 87.8C666.231 89.6987 666.604 91.3627 667.351 92.792C668.097 94.2213 669.121 95.32 670.423 96.088C671.745 96.856 673.228 97.24 674.871 97.24C676.727 97.24 678.305 96.824 679.607 95.992C680.929 95.1387 681.911 93.9653 682.551 92.472H685.175C684.364 94.6053 683.063 96.2587 681.271 97.432C679.479 98.6053 677.345 99.192 674.871 99.192C672.823 99.192 670.967 98.712 669.303 97.752C667.639 96.7707 666.327 95.416 665.367 93.688C664.407 91.96 663.927 89.9973 663.927 87.8ZM699.686 99.224C697.617 99.224 695.739 98.744 694.054 97.784C692.369 96.8027 691.035 95.448 690.054 93.72C689.094 91.9707 688.614 89.9973 688.614 87.8C688.614 85.6027 689.094 83.64 690.054 81.912C691.035 80.1627 692.369 78.808 694.054 77.848C695.739 76.8667 697.617 76.376 699.686 76.376C701.777 76.376 703.665 76.8667 705.35 77.848C707.035 78.808 708.358 80.1627 709.318 81.912C710.278 83.64 710.758 85.6027 710.758 87.8C710.758 89.9973 710.278 91.9707 709.318 93.72C708.358 95.448 707.035 96.8027 705.35 97.784C703.665 98.744 701.777 99.224 699.686 99.224ZM699.686 97.272C701.35 97.272 702.843 96.888 704.166 96.12C705.489 95.352 706.534 94.2533 707.302 92.824C708.07 91.3733 708.454 89.6987 708.454 87.8C708.454 85.9013 708.07 84.2373 707.302 82.808C706.534 81.3787 705.489 80.28 704.166 79.512C702.843 78.744 701.35 78.36 699.686 78.36C698.022 78.36 696.529 78.744 695.206 79.512C693.883 80.28 692.838 81.3787 692.07 82.808C691.302 84.2373 690.918 85.9013 690.918 87.8C690.918 89.6987 691.302 91.3733 692.07 92.824C692.838 94.2533 693.883 95.352 695.206 96.12C696.529 96.888 698.022 97.272 699.686 97.272ZM721.641 99.224C720.169 99.224 718.868 98.968 717.737 98.456C716.628 97.944 715.753 97.2293 715.113 96.312C714.473 95.3947 714.132 94.3707 714.089 93.24H716.457C716.564 94.328 717.044 95.288 717.897 96.12C718.75 96.9307 719.998 97.336 721.641 97.336C723.156 97.336 724.35 96.952 725.225 96.184C726.121 95.3947 726.569 94.4027 726.569 93.208C726.569 92.248 726.324 91.48 725.833 90.904C725.342 90.3067 724.734 89.8693 724.009 89.592C723.284 89.2933 722.281 88.9733 721.001 88.632C719.508 88.2267 718.324 87.832 717.449 87.448C716.574 87.064 715.828 86.4667 715.209 85.656C714.59 84.8453 714.281 83.7467 714.281 82.36C714.281 81.208 714.58 80.184 715.177 79.288C715.774 78.3707 716.617 77.656 717.705 77.144C718.793 76.632 720.041 76.376 721.449 76.376C723.518 76.376 725.182 76.888 726.441 77.912C727.721 78.9147 728.457 80.216 728.649 81.816H726.217C726.068 80.8987 725.566 80.088 724.713 79.384C723.86 78.6587 722.708 78.296 721.257 78.296C719.913 78.296 718.793 78.6587 717.897 79.384C717.001 80.088 716.553 81.0587 716.553 82.296C716.553 83.2347 716.798 83.992 717.289 84.568C717.78 85.144 718.388 85.5813 719.113 85.88C719.86 86.1787 720.862 86.4987 722.121 86.84C723.572 87.2453 724.745 87.6507 725.641 88.056C726.537 88.44 727.294 89.0373 727.913 89.848C728.532 90.6587 728.841 91.7467 728.841 93.112C728.841 94.1573 728.564 95.1493 728.009 96.088C727.454 97.0267 726.633 97.784 725.545 98.36C724.457 98.936 723.156 99.224 721.641 99.224ZM759.679 76.632L751.199 99H748.639L740.159 76.632H742.591L749.919 96.568L757.311 76.632H759.679ZM765.284 76.632V99H763.044V76.632H765.284ZM777.141 99.224C775.669 99.224 774.368 98.968 773.237 98.456C772.128 97.944 771.253 97.2293 770.613 96.312C769.973 95.3947 769.632 94.3707 769.589 93.24H771.957C772.064 94.328 772.544 95.288 773.397 96.12C774.25 96.9307 775.498 97.336 777.141 97.336C778.656 97.336 779.85 96.952 780.725 96.184C781.621 95.3947 782.069 94.4027 782.069 93.208C782.069 92.248 781.824 91.48 781.333 90.904C780.842 90.3067 780.234 89.8693 779.509 89.592C778.784 89.2933 777.781 88.9733 776.501 88.632C775.008 88.2267 773.824 87.832 772.949 87.448C772.074 87.064 771.328 86.4667 770.709 85.656C770.09 84.8453 769.781 83.7467 769.781 82.36C769.781 81.208 770.08 80.184 770.677 79.288C771.274 78.3707 772.117 77.656 773.205 77.144C774.293 76.632 775.541 76.376 776.949 76.376C779.018 76.376 780.682 76.888 781.941 77.912C783.221 78.9147 783.957 80.216 784.149 81.816H781.717C781.568 80.8987 781.066 80.088 780.213 79.384C779.36 78.6587 778.208 78.296 776.757 78.296C775.413 78.296 774.293 78.6587 773.397 79.384C772.501 80.088 772.053 81.0587 772.053 82.296C772.053 83.2347 772.298 83.992 772.789 84.568C773.28 85.144 773.888 85.5813 774.613 85.88C775.36 86.1787 776.362 86.4987 777.621 86.84C779.072 87.2453 780.245 87.6507 781.141 88.056C782.037 88.44 782.794 89.0373 783.413 89.848C784.032 90.6587 784.341 91.7467 784.341 93.112C784.341 94.1573 784.064 95.1493 783.509 96.088C782.954 97.0267 782.133 97.784 781.045 98.36C779.957 98.936 778.656 99.224 777.141 99.224ZM790.909 76.632V99H788.669V76.632H790.909ZM809.07 76.632V78.488H802.862V99H800.622V78.488H794.382V76.632H809.07ZM825.567 93.688H815.391L813.439 99H811.071L819.231 76.92H821.759L829.887 99H827.519L825.567 93.688ZM824.895 91.832L820.479 79.736L816.063 91.832H824.895ZM840.106 76.632C842.581 76.632 844.703 77.08 846.474 77.976C848.245 78.872 849.599 80.1627 850.538 81.848C851.477 83.5333 851.946 85.5387 851.946 87.864C851.946 90.168 851.477 92.1627 850.538 93.848C849.599 95.512 848.245 96.792 846.474 97.688C844.703 98.5627 842.581 99 840.106 99H833.482V76.632H840.106ZM840.106 97.144C843.221 97.144 845.589 96.3333 847.21 94.712C848.853 93.0693 849.674 90.7867 849.674 87.864C849.674 84.92 848.853 82.6267 847.21 80.984C845.589 79.32 843.221 78.488 840.106 78.488H835.722V97.144H840.106ZM866.124 99.224C864.054 99.224 862.177 98.744 860.492 97.784C858.806 96.8027 857.473 95.448 856.492 93.72C855.532 91.9707 855.052 89.9973 855.052 87.8C855.052 85.6027 855.532 83.64 856.492 81.912C857.473 80.1627 858.806 78.808 860.492 77.848C862.177 76.8667 864.054 76.376 866.124 76.376C868.214 76.376 870.102 76.8667 871.788 77.848C873.473 78.808 874.796 80.1627 875.756 81.912C876.716 83.64 877.196 85.6027 877.196 87.8C877.196 89.9973 876.716 91.9707 875.756 93.72C874.796 95.448 873.473 96.8027 871.788 97.784C870.102 98.744 868.214 99.224 866.124 99.224ZM866.124 97.272C867.788 97.272 869.281 96.888 870.604 96.12C871.926 95.352 872.972 94.2533 873.74 92.824C874.508 91.3733 874.892 89.6987 874.892 87.8C874.892 85.9013 874.508 84.2373 873.74 82.808C872.972 81.3787 871.926 80.28 870.604 79.512C869.281 78.744 867.788 78.36 866.124 78.36C864.46 78.36 862.966 78.744 861.644 79.512C860.321 80.28 859.276 81.3787 858.508 82.808C857.74 84.2373 857.356 85.9013 857.356 87.8C857.356 89.6987 857.74 91.3733 858.508 92.824C859.276 94.2533 860.321 95.352 861.644 96.12C862.966 96.888 864.46 97.272 866.124 97.272ZM888.078 99.224C886.606 99.224 885.305 98.968 884.174 98.456C883.065 97.944 882.19 97.2293 881.55 96.312C880.91 95.3947 880.569 94.3707 880.526 93.24H882.894C883.001 94.328 883.481 95.288 884.334 96.12C885.188 96.9307 886.436 97.336 888.078 97.336C889.593 97.336 890.788 96.952 891.662 96.184C892.558 95.3947 893.006 94.4027 893.006 93.208C893.006 92.248 892.761 91.48 892.27 90.904C891.78 90.3067 891.172 89.8693 890.446 89.592C889.721 89.2933 888.718 88.9733 887.438 88.632C885.945 88.2267 884.761 87.832 883.886 87.448C883.012 87.064 882.265 86.4667 881.646 85.656C881.028 84.8453 880.718 83.7467 880.718 82.36C880.718 81.208 881.017 80.184 881.614 79.288C882.212 78.3707 883.054 77.656 884.142 77.144C885.23 76.632 886.478 76.376 887.886 76.376C889.956 76.376 891.62 76.888 892.878 77.912C894.158 78.9147 894.894 80.216 895.086 81.816H892.654C892.505 80.8987 892.004 80.088 891.15 79.384C890.297 78.6587 889.145 78.296 887.694 78.296C886.35 78.296 885.23 78.6587 884.334 79.384C883.438 80.088 882.99 81.0587 882.99 82.296C882.99 83.2347 883.236 83.992 883.726 84.568C884.217 85.144 884.825 85.5813 885.55 85.88C886.297 86.1787 887.3 86.4987 888.558 86.84C890.009 87.2453 891.182 87.6507 892.078 88.056C892.974 88.44 893.732 89.0373 894.35 89.848C894.969 90.6587 895.278 91.7467 895.278 93.112C895.278 94.1573 895.001 95.1493 894.446 96.088C893.892 97.0267 893.07 97.784 891.982 98.36C890.894 98.936 889.593 99.224 888.078 99.224ZM920.292 99L914.756 89.656H910.628V99H908.388V76.632H915.108C917.604 76.632 919.492 77.2293 920.772 78.424C922.073 79.6187 922.724 81.1867 922.724 83.128C922.724 84.7493 922.255 86.136 921.316 87.288C920.399 88.4187 919.033 89.1547 917.22 89.496L922.98 99H920.292ZM910.628 87.832H915.14C916.889 87.832 918.201 87.4053 919.076 86.552C919.972 85.6987 920.42 84.5573 920.42 83.128C920.42 81.656 919.993 80.5253 919.14 79.736C918.287 78.9253 916.943 78.52 915.108 78.52H910.628V87.832ZM929.409 78.456V86.808H937.889V88.664H929.409V97.144H938.849V99H927.169V76.6H938.849V78.456H929.409ZM942.239 87.8C942.239 85.6027 942.719 83.64 943.679 81.912C944.639 80.1627 945.951 78.808 947.615 77.848C949.279 76.8667 951.135 76.376 953.183 76.376C955.679 76.376 957.812 76.9733 959.583 78.168C961.375 79.3413 962.676 81.0053 963.487 83.16H960.863C960.223 81.6453 959.242 80.4613 957.919 79.608C956.618 78.7547 955.039 78.328 953.183 78.328C951.54 78.328 950.058 78.712 948.735 79.48C947.434 80.248 946.41 81.3573 945.663 82.808C944.916 84.2373 944.543 85.9013 944.543 87.8C944.543 89.6987 944.916 91.3627 945.663 92.792C946.41 94.2213 947.434 95.32 948.735 96.088C950.058 96.856 951.54 97.24 953.183 97.24C955.039 97.24 956.618 96.824 957.919 95.992C959.242 95.1387 960.223 93.9653 960.863 92.472H963.487C962.676 94.6053 961.375 96.2587 959.583 97.432C957.791 98.6053 955.658 99.192 953.183 99.192C951.135 99.192 949.279 98.712 947.615 97.752C945.951 96.7707 944.639 95.416 943.679 93.688C942.719 91.96 942.239 89.9973 942.239 87.8ZM970.191 78.456V86.808H978.671V88.664H970.191V97.144H979.631V99H967.951V76.6H979.631V78.456H970.191ZM1000.91 99H998.668L986.284 80.184V99H984.044V76.632H986.284L998.668 95.416V76.632H1000.91V99ZM1019.07 76.632V78.488H1012.86V99H1010.62V78.488H1004.38V76.632H1019.07ZM1024.85 78.456V86.808H1033.33V88.664H1024.85V97.144H1034.29V99H1022.61V76.6H1034.29V78.456H1024.85ZM1060.56 76.92V99H1058.32V81.368L1050.44 99H1048.81L1040.94 81.432V99H1038.7V76.92H1041.07L1049.61 96.056L1058.16 76.92H1060.56ZM1067.88 78.456V86.808H1076.36V88.664H1067.88V97.144H1077.32V99H1065.64V76.6H1077.32V78.456H1067.88ZM1098.6 99H1096.36L1083.97 80.184V99H1081.73V76.632H1083.97L1096.36 95.416V76.632H1098.6V99ZM1116.76 76.632V78.488H1110.55V99H1108.31V78.488H1102.07V76.632H1116.76ZM1122.53 78.456V86.808H1131.01V88.664H1122.53V97.144H1131.97V99H1120.29V76.6H1131.97V78.456H1122.53Z" fill="white"/>
<rect width="164" height="84" transform="translate(493 152)" fill="#EB9B00"/>
<path d="M536.976 199.024H530.688L529.68 202H525.384L531.48 185.152H536.232L542.328 202H537.984L536.976 199.024ZM535.92 195.856L533.832 189.688L531.768 195.856H535.92ZM552.343 188.464C553.911 188.464 555.159 188.976 556.087 190C557.031 191.008 557.503 192.4 557.503 194.176V202H553.423V194.728C553.423 193.832 553.191 193.136 552.727 192.64C552.263 192.144 551.639 191.896 550.855 191.896C550.071 191.896 549.447 192.144 548.983 192.64C548.519 193.136 548.287 193.832 548.287 194.728V202H544.183V188.608H548.287V190.384C548.703 189.792 549.263 189.328 549.967 188.992C550.671 188.64 551.463 188.464 552.343 188.464ZM559.539 195.28C559.539 193.904 559.795 192.696 560.307 191.656C560.835 190.616 561.547 189.816 562.443 189.256C563.339 188.696 564.339 188.416 565.443 188.416C566.323 188.416 567.123 188.6 567.843 188.968C568.579 189.336 569.155 189.832 569.571 190.456V184.24H573.675V202H569.571V200.08C569.187 200.72 568.635 201.232 567.915 201.616C567.211 202 566.387 202.192 565.443 202.192C564.339 202.192 563.339 201.912 562.443 201.352C561.547 200.776 560.835 199.968 560.307 198.928C559.795 197.872 559.539 196.656 559.539 195.28ZM569.571 195.304C569.571 194.28 569.283 193.472 568.707 192.88C568.147 192.288 567.459 191.992 566.643 191.992C565.827 191.992 565.131 192.288 564.555 192.88C563.995 193.456 563.715 194.256 563.715 195.28C563.715 196.304 563.995 197.12 564.555 197.728C565.131 198.32 565.827 198.616 566.643 198.616C567.459 198.616 568.147 198.32 568.707 197.728C569.283 197.136 569.571 196.328 569.571 195.304ZM580.748 190.84C581.228 190.104 581.828 189.528 582.548 189.112C583.268 188.68 584.068 188.464 584.948 188.464V192.808H583.82C582.796 192.808 582.028 193.032 581.516 193.48C581.004 193.912 580.748 194.68 580.748 195.784V202H576.644V188.608H580.748V190.84ZM593.006 202.192C591.694 202.192 590.51 201.912 589.454 201.352C588.414 200.792 587.59 199.992 586.982 198.952C586.39 197.912 586.094 196.696 586.094 195.304C586.094 193.928 586.398 192.72 587.006 191.68C587.614 190.624 588.446 189.816 589.502 189.256C590.558 188.696 591.742 188.416 593.054 188.416C594.366 188.416 595.55 188.696 596.606 189.256C597.662 189.816 598.494 190.624 599.102 191.68C599.71 192.72 600.014 193.928 600.014 195.304C600.014 196.68 599.702 197.896 599.078 198.952C598.47 199.992 597.63 200.792 596.558 201.352C595.502 201.912 594.318 202.192 593.006 202.192ZM593.006 198.64C593.79 198.64 594.454 198.352 594.998 197.776C595.558 197.2 595.838 196.376 595.838 195.304C595.838 194.232 595.566 193.408 595.022 192.832C594.494 192.256 593.838 191.968 593.054 191.968C592.254 191.968 591.59 192.256 591.062 192.832C590.534 193.392 590.27 194.216 590.27 195.304C590.27 196.376 590.526 197.2 591.038 197.776C591.566 198.352 592.222 198.64 593.006 198.64ZM604.255 187.216C603.535 187.216 602.943 187.008 602.479 186.592C602.031 186.16 601.807 185.632 601.807 185.008C601.807 184.368 602.031 183.84 602.479 183.424C602.943 182.992 603.535 182.776 604.255 182.776C604.959 182.776 605.535 182.992 605.983 183.424C606.447 183.84 606.679 184.368 606.679 185.008C606.679 185.632 606.447 186.16 605.983 186.592C605.535 187.008 604.959 187.216 604.255 187.216ZM606.295 188.608V202H602.191V188.608H606.295ZM608.453 195.28C608.453 193.904 608.709 192.696 609.221 191.656C609.749 190.616 610.461 189.816 611.357 189.256C612.253 188.696 613.253 188.416 614.357 188.416C615.237 188.416 616.037 188.6 616.757 188.968C617.493 189.336 618.069 189.832 618.485 190.456V184.24H622.589V202H618.485V200.08C618.101 200.72 617.549 201.232 616.829 201.616C616.125 202 615.301 202.192 614.357 202.192C613.253 202.192 612.253 201.912 611.357 201.352C610.461 200.776 609.749 199.968 609.221 198.928C608.709 197.872 608.453 196.656 608.453 195.28ZM618.485 195.304C618.485 194.28 618.197 193.472 617.621 192.88C617.061 192.288 616.373 191.992 615.557 191.992C614.741 191.992 614.045 192.288 613.469 192.88C612.909 193.456 612.629 194.256 612.629 195.28C612.629 196.304 612.909 197.12 613.469 197.728C614.045 198.32 614.741 198.616 615.557 198.616C616.373 198.616 617.061 198.32 617.621 197.728C618.197 197.136 618.485 196.328 618.485 195.304Z" fill="white"/>
<rect width="102" height="84" transform="translate(681 152)" fill="#EB9B00"/>
<path d="M722.456 202.168C720.872 202.168 719.416 201.8 718.088 201.064C716.776 200.328 715.728 199.304 714.944 197.992C714.176 196.664 713.792 195.176 713.792 193.528C713.792 191.88 714.176 190.4 714.944 189.088C715.728 187.776 716.776 186.752 718.088 186.016C719.416 185.28 720.872 184.912 722.456 184.912C724.04 184.912 725.488 185.28 726.8 186.016C728.128 186.752 729.168 187.776 729.92 189.088C730.688 190.4 731.072 191.88 731.072 193.528C731.072 195.176 730.688 196.664 729.92 197.992C729.152 199.304 728.112 200.328 726.8 201.064C725.488 201.8 724.04 202.168 722.456 202.168ZM722.456 198.424C723.8 198.424 724.872 197.976 725.672 197.08C726.488 196.184 726.896 195 726.896 193.528C726.896 192.04 726.488 190.856 725.672 189.976C724.872 189.08 723.8 188.632 722.456 188.632C721.096 188.632 720.008 189.072 719.192 189.952C718.392 190.832 717.992 192.024 717.992 193.528C717.992 195.016 718.392 196.208 719.192 197.104C720.008 197.984 721.096 198.424 722.456 198.424ZM741.323 202.168C739.739 202.168 738.283 201.8 736.955 201.064C735.643 200.328 734.595 199.304 733.811 197.992C733.043 196.664 732.659 195.176 732.659 193.528C732.659 191.88 733.043 190.4 733.811 189.088C734.595 187.776 735.643 186.752 736.955 186.016C738.283 185.28 739.739 184.912 741.323 184.912C742.907 184.912 744.355 185.28 745.667 186.016C746.995 186.752 748.035 187.776 748.787 189.088C749.555 190.4 749.939 191.88 749.939 193.528C749.939 195.176 749.555 196.664 748.787 197.992C748.019 199.304 746.979 200.328 745.667 201.064C744.355 201.8 742.907 202.168 741.323 202.168ZM741.323 198.424C742.667 198.424 743.739 197.976 744.539 197.08C745.355 196.184 745.763 195 745.763 193.528C745.763 192.04 745.355 190.856 744.539 189.976C743.739 189.08 742.667 188.632 741.323 188.632C739.963 188.632 738.875 189.072 738.059 189.952C737.259 190.832 736.859 192.024 736.859 193.528C736.859 195.016 737.259 196.208 738.059 197.104C738.875 197.984 739.963 198.424 741.323 198.424Z" fill="white"/>
<rect width="278" height="84" transform="translate(807 152)" fill="#EB9B00"/>
<path d="M859.568 185.152V202H855.464V191.896L851.696 202H848.384L844.592 191.872V202H840.488V185.152H845.336L850.064 196.816L854.744 185.152H859.568ZM861.703 195.28C861.703 193.904 861.959 192.696 862.471 191.656C862.999 190.616 863.711 189.816 864.607 189.256C865.503 188.696 866.503 188.416 867.607 188.416C868.551 188.416 869.375 188.608 870.079 188.992C870.799 189.376 871.351 189.88 871.735 190.504V188.608H875.839V202H871.735V200.104C871.335 200.728 870.775 201.232 870.055 201.616C869.351 202 868.527 202.192 867.583 202.192C866.495 202.192 865.503 201.912 864.607 201.352C863.711 200.776 862.999 199.968 862.471 198.928C861.959 197.872 861.703 196.656 861.703 195.28ZM871.735 195.304C871.735 194.28 871.447 193.472 870.871 192.88C870.311 192.288 869.623 191.992 868.807 191.992C867.991 191.992 867.295 192.288 866.719 192.88C866.159 193.456 865.879 194.256 865.879 195.28C865.879 196.304 866.159 197.12 866.719 197.728C867.295 198.32 867.991 198.616 868.807 198.616C869.623 198.616 870.311 198.32 870.871 197.728C871.447 197.136 871.735 196.328 871.735 195.304ZM882.912 190.84C883.392 190.104 883.992 189.528 884.712 189.112C885.432 188.68 886.232 188.464 887.112 188.464V192.808H885.984C884.96 192.808 884.192 193.032 883.68 193.48C883.168 193.912 882.912 194.68 882.912 195.784V202H878.808V188.608H882.912V190.84ZM897.258 202L893.178 196.384V202H889.074V184.24H893.178V194.056L897.234 188.608H902.298L896.73 195.328L902.346 202H897.258ZM916.534 195.088C916.534 195.472 916.51 195.872 916.462 196.288H907.174C907.238 197.12 907.502 197.76 907.966 198.208C908.446 198.64 909.03 198.856 909.718 198.856C910.742 198.856 911.454 198.424 911.854 197.56H916.222C915.998 198.44 915.59 199.232 914.998 199.936C914.422 200.64 913.694 201.192 912.814 201.592C911.934 201.992 910.95 202.192 909.862 202.192C908.55 202.192 907.382 201.912 906.358 201.352C905.334 200.792 904.534 199.992 903.958 198.952C903.382 197.912 903.094 196.696 903.094 195.304C903.094 193.912 903.374 192.696 903.934 191.656C904.51 190.616 905.31 189.816 906.334 189.256C907.358 188.696 908.534 188.416 909.862 188.416C911.158 188.416 912.31 188.688 913.318 189.232C914.326 189.776 915.11 190.552 915.67 191.56C916.246 192.568 916.534 193.744 916.534 195.088ZM912.334 194.008C912.334 193.304 912.094 192.744 911.614 192.328C911.134 191.912 910.534 191.704 909.814 191.704C909.126 191.704 908.542 191.904 908.062 192.304C907.598 192.704 907.31 193.272 907.198 194.008H912.334ZM926.163 198.52V202H924.075C922.587 202 921.427 201.64 920.595 200.92C919.763 200.184 919.347 198.992 919.347 197.344V192.016H917.715V188.608H919.347V185.344H923.451V188.608H926.139V192.016H923.451V197.392C923.451 197.792 923.547 198.08 923.739 198.256C923.931 198.432 924.251 198.52 924.699 198.52H926.163ZM930.513 187.216C929.793 187.216 929.201 187.008 928.737 186.592C928.289 186.16 928.065 185.632 928.065 185.008C928.065 184.368 928.289 183.84 928.737 183.424C929.201 182.992 929.793 182.776 930.513 182.776C931.217 182.776 931.793 182.992 932.241 183.424C932.705 183.84 932.937 184.368 932.937 185.008C932.937 185.632 932.705 186.16 932.241 186.592C931.793 187.008 931.217 187.216 930.513 187.216ZM932.553 188.608V202H928.449V188.608H932.553ZM943.687 188.464C945.255 188.464 946.503 188.976 947.431 190C948.375 191.008 948.847 192.4 948.847 194.176V202H944.767V194.728C944.767 193.832 944.535 193.136 944.071 192.64C943.607 192.144 942.983 191.896 942.199 191.896C941.415 191.896 940.791 192.144 940.327 192.64C939.863 193.136 939.631 193.832 939.631 194.728V202H935.527V188.608H939.631V190.384C940.047 189.792 940.607 189.328 941.311 188.992C942.015 188.64 942.807 188.464 943.687 188.464ZM956.787 188.416C957.731 188.416 958.555 188.608 959.259 188.992C959.979 189.376 960.531 189.88 960.915 190.504V188.608H965.019V201.976C965.019 203.208 964.771 204.32 964.275 205.312C963.795 206.32 963.051 207.12 962.043 207.712C961.051 208.304 959.811 208.6 958.323 208.6C956.339 208.6 954.731 208.128 953.499 207.184C952.267 206.256 951.563 204.992 951.387 203.392H955.443C955.571 203.904 955.875 204.304 956.355 204.592C956.835 204.896 957.427 205.048 958.131 205.048C958.979 205.048 959.651 204.8 960.147 204.304C960.659 203.824 960.915 203.048 960.915 201.976V200.08C960.515 200.704 959.963 201.216 959.259 201.616C958.555 202 957.731 202.192 956.787 202.192C955.683 202.192 954.683 201.912 953.787 201.352C952.891 200.776 952.179 199.968 951.651 198.928C951.139 197.872 950.883 196.656 950.883 195.28C950.883 193.904 951.139 192.696 951.651 191.656C952.179 190.616 952.891 189.816 953.787 189.256C954.683 188.696 955.683 188.416 956.787 188.416ZM960.915 195.304C960.915 194.28 960.627 193.472 960.051 192.88C959.491 192.288 958.803 191.992 957.987 191.992C957.171 191.992 956.475 192.288 955.899 192.88C955.339 193.456 955.059 194.256 955.059 195.28C955.059 196.304 955.339 197.12 955.899 197.728C956.475 198.32 957.171 198.616 957.987 198.616C958.803 198.616 959.491 198.32 960.051 197.728C960.627 197.136 960.915 196.328 960.915 195.304ZM979.386 185.152C981.162 185.152 982.714 185.504 984.042 186.208C985.37 186.912 986.394 187.904 987.114 189.184C987.85 190.448 988.218 191.912 988.218 193.576C988.218 195.224 987.85 196.688 987.114 197.968C986.394 199.248 985.362 200.24 984.018 200.944C982.69 201.648 981.146 202 979.386 202H973.074V185.152H979.386ZM979.122 198.448C980.674 198.448 981.882 198.024 982.746 197.176C983.61 196.328 984.042 195.128 984.042 193.576C984.042 192.024 983.61 190.816 982.746 189.952C981.882 189.088 980.674 188.656 979.122 188.656H977.178V198.448H979.122ZM992.575 187.216C991.855 187.216 991.263 187.008 990.799 186.592C990.351 186.16 990.127 185.632 990.127 185.008C990.127 184.368 990.351 183.84 990.799 183.424C991.263 182.992 991.855 182.776 992.575 182.776C993.279 182.776 993.855 182.992 994.303 183.424C994.767 183.84 994.999 184.368 994.999 185.008C994.999 185.632 994.767 186.16 994.303 186.592C993.855 187.008 993.279 187.216 992.575 187.216ZM994.615 188.608V202H990.511V188.608H994.615ZM1002.68 188.416C1003.62 188.416 1004.45 188.608 1005.15 188.992C1005.87 189.376 1006.42 189.88 1006.81 190.504V188.608H1010.91V201.976C1010.91 203.208 1010.66 204.32 1010.17 205.312C1009.69 206.32 1008.94 207.12 1007.93 207.712C1006.94 208.304 1005.7 208.6 1004.21 208.6C1002.23 208.6 1000.62 208.128 999.39 207.184C998.158 206.256 997.454 204.992 997.278 203.392H1001.33C1001.46 203.904 1001.77 204.304 1002.25 204.592C1002.73 204.896 1003.32 205.048 1004.02 205.048C1004.87 205.048 1005.54 204.8 1006.04 204.304C1006.55 203.824 1006.81 203.048 1006.81 201.976V200.08C1006.41 200.704 1005.85 201.216 1005.15 201.616C1004.45 202 1003.62 202.192 1002.68 202.192C1001.57 202.192 1000.57 201.912 999.678 201.352C998.782 200.776 998.07 199.968 997.542 198.928C997.03 197.872 996.774 196.656 996.774 195.28C996.774 193.904 997.03 192.696 997.542 191.656C998.07 190.616 998.782 189.816 999.678 189.256C1000.57 188.696 1001.57 188.416 1002.68 188.416ZM1006.81 195.304C1006.81 194.28 1006.52 193.472 1005.94 192.88C1005.38 192.288 1004.69 191.992 1003.88 191.992C1003.06 191.992 1002.37 192.288 1001.79 192.88C1001.23 193.456 1000.95 194.256 1000.95 195.28C1000.95 196.304 1001.23 197.12 1001.79 197.728C1002.37 198.32 1003.06 198.616 1003.88 198.616C1004.69 198.616 1005.38 198.32 1005.94 197.728C1006.52 197.136 1006.81 196.328 1006.81 195.304ZM1015.94 187.216C1015.22 187.216 1014.63 187.008 1014.17 186.592C1013.72 186.16 1013.49 185.632 1013.49 185.008C1013.49 184.368 1013.72 183.84 1014.17 183.424C1014.63 182.992 1015.22 182.776 1015.94 182.776C1016.65 182.776 1017.22 182.992 1017.67 183.424C1018.13 183.84 1018.37 184.368 1018.37 185.008C1018.37 185.632 1018.13 186.16 1017.67 186.592C1017.22 187.008 1016.65 187.216 1015.94 187.216ZM1017.98 188.608V202H1013.88V188.608H1017.98ZM1028.42 198.52V202H1026.33C1024.84 202 1023.68 201.64 1022.85 200.92C1022.02 200.184 1021.6 198.992 1021.6 197.344V192.016H1019.97V188.608H1021.6V185.344H1025.71V188.608H1028.4V192.016H1025.71V197.392C1025.71 197.792 1025.8 198.08 1026 198.256C1026.19 198.432 1026.51 198.52 1026.96 198.52H1028.42ZM1029.89 195.28C1029.89 193.904 1030.15 192.696 1030.66 191.656C1031.19 190.616 1031.9 189.816 1032.79 189.256C1033.69 188.696 1034.69 188.416 1035.79 188.416C1036.74 188.416 1037.56 188.608 1038.27 188.992C1038.99 189.376 1039.54 189.88 1039.92 190.504V188.608H1044.03V202H1039.92V200.104C1039.52 200.728 1038.96 201.232 1038.24 201.616C1037.54 202 1036.71 202.192 1035.77 202.192C1034.68 202.192 1033.69 201.912 1032.79 201.352C1031.9 200.776 1031.19 199.968 1030.66 198.928C1030.15 197.872 1029.89 196.656 1029.89 195.28ZM1039.92 195.304C1039.92 194.28 1039.63 193.472 1039.06 192.88C1038.5 192.288 1037.81 191.992 1036.99 191.992C1036.18 191.992 1035.48 192.288 1034.91 192.88C1034.35 193.456 1034.07 194.256 1034.07 195.28C1034.07 196.304 1034.35 197.12 1034.91 197.728C1035.48 198.32 1036.18 198.616 1036.99 198.616C1037.81 198.616 1038.5 198.32 1039.06 197.728C1039.63 197.136 1039.92 196.328 1039.92 195.304ZM1051.1 184.24V202H1047V184.24H1051.1Z" fill="white"/>
<rect width="127" height="84" transform="translate(1109 152)" fill="#EB9B00"/>
<path d="M1152.98 199.024H1146.69L1145.68 202H1141.38L1147.48 185.152H1152.23L1158.33 202H1153.98L1152.98 199.024ZM1151.92 195.856L1149.83 189.688L1147.77 195.856H1151.92ZM1165.27 188.416C1166.22 188.416 1167.04 188.608 1167.74 188.992C1168.46 189.376 1169.02 189.88 1169.4 190.504V188.608H1173.5V201.976C1173.5 203.208 1173.26 204.32 1172.76 205.312C1172.28 206.32 1171.54 207.12 1170.53 207.712C1169.54 208.304 1168.3 208.6 1166.81 208.6C1164.82 208.6 1163.22 208.128 1161.98 207.184C1160.75 206.256 1160.05 204.992 1159.87 203.392H1163.93C1164.06 203.904 1164.36 204.304 1164.84 204.592C1165.32 204.896 1165.91 205.048 1166.62 205.048C1167.46 205.048 1168.14 204.8 1168.63 204.304C1169.14 203.824 1169.4 203.048 1169.4 201.976V200.08C1169 200.704 1168.45 201.216 1167.74 201.616C1167.04 202 1166.22 202.192 1165.27 202.192C1164.17 202.192 1163.17 201.912 1162.27 201.352C1161.38 200.776 1160.66 199.968 1160.14 198.928C1159.62 197.872 1159.37 196.656 1159.37 195.28C1159.37 193.904 1159.62 192.696 1160.14 191.656C1160.66 190.616 1161.38 189.816 1162.27 189.256C1163.17 188.696 1164.17 188.416 1165.27 188.416ZM1169.4 195.304C1169.4 194.28 1169.11 193.472 1168.54 192.88C1167.98 192.288 1167.29 191.992 1166.47 191.992C1165.66 191.992 1164.96 192.288 1164.38 192.88C1163.82 193.456 1163.54 194.256 1163.54 195.28C1163.54 196.304 1163.82 197.12 1164.38 197.728C1164.96 198.32 1165.66 198.616 1166.47 198.616C1167.29 198.616 1167.98 198.32 1168.54 197.728C1169.11 197.136 1169.4 196.328 1169.4 195.304ZM1178.54 187.216C1177.82 187.216 1177.22 187.008 1176.76 186.592C1176.31 186.16 1176.09 185.632 1176.09 185.008C1176.09 184.368 1176.31 183.84 1176.76 183.424C1177.22 182.992 1177.82 182.776 1178.54 182.776C1179.24 182.776 1179.82 182.992 1180.26 183.424C1180.73 183.84 1180.96 184.368 1180.96 185.008C1180.96 185.632 1180.73 186.16 1180.26 186.592C1179.82 187.008 1179.24 187.216 1178.54 187.216ZM1180.58 188.608V202H1176.47V188.608H1180.58ZM1187.65 184.24V202H1183.55V184.24H1187.65ZM1203.25 195.088C1203.25 195.472 1203.23 195.872 1203.18 196.288H1193.89C1193.96 197.12 1194.22 197.76 1194.68 198.208C1195.16 198.64 1195.75 198.856 1196.44 198.856C1197.46 198.856 1198.17 198.424 1198.57 197.56H1202.94C1202.72 198.44 1202.31 199.232 1201.72 199.936C1201.14 200.64 1200.41 201.192 1199.53 201.592C1198.65 201.992 1197.67 202.192 1196.58 202.192C1195.27 202.192 1194.1 201.912 1193.08 201.352C1192.05 200.792 1191.25 199.992 1190.68 198.952C1190.1 197.912 1189.81 196.696 1189.81 195.304C1189.81 193.912 1190.09 192.696 1190.65 191.656C1191.23 190.616 1192.03 189.816 1193.05 189.256C1194.08 188.696 1195.25 188.416 1196.58 188.416C1197.88 188.416 1199.03 188.688 1200.04 189.232C1201.04 189.776 1201.83 190.552 1202.39 191.56C1202.96 192.568 1203.25 193.744 1203.25 195.088ZM1199.05 194.008C1199.05 193.304 1198.81 192.744 1198.33 192.328C1197.85 191.912 1197.25 191.704 1196.53 191.704C1195.84 191.704 1195.26 191.904 1194.78 192.304C1194.32 192.704 1194.03 193.272 1193.92 194.008H1199.05Z" fill="white"/>
<rect width="171" height="84" transform="translate(500.5 260)" fill="#EB9B00"/>
<path d="M540.084 310.168C538.852 310.168 537.748 309.968 536.772 309.568C535.796 309.168 535.012 308.576 534.42 307.792C533.844 307.008 533.54 306.064 533.508 304.96H537.876C537.94 305.584 538.156 306.064 538.524 306.4C538.892 306.72 539.372 306.88 539.964 306.88C540.572 306.88 541.052 306.744 541.404 306.472C541.756 306.184 541.932 305.792 541.932 305.296C541.932 304.88 541.788 304.536 541.5 304.264C541.228 303.992 540.884 303.768 540.468 303.592C540.068 303.416 539.492 303.216 538.74 302.992C537.652 302.656 536.764 302.32 536.076 301.984C535.388 301.648 534.796 301.152 534.3 300.496C533.804 299.84 533.556 298.984 533.556 297.928C533.556 296.36 534.124 295.136 535.26 294.256C536.396 293.36 537.876 292.912 539.7 292.912C541.556 292.912 543.052 293.36 544.188 294.256C545.324 295.136 545.932 296.368 546.012 297.952H541.572C541.54 297.408 541.34 296.984 540.972 296.68C540.604 296.36 540.132 296.2 539.556 296.2C539.06 296.2 538.66 296.336 538.356 296.608C538.052 296.864 537.9 297.24 537.9 297.736C537.9 298.28 538.156 298.704 538.668 299.008C539.18 299.312 539.98 299.64 541.068 299.992C542.156 300.36 543.036 300.712 543.708 301.048C544.396 301.384 544.988 301.872 545.484 302.512C545.98 303.152 546.228 303.976 546.228 304.984C546.228 305.944 545.98 306.816 545.484 307.6C545.004 308.384 544.3 309.008 543.372 309.472C542.444 309.936 541.348 310.168 540.084 310.168ZM556.218 306.52V310H554.13C552.642 310 551.482 309.64 550.65 308.92C549.818 308.184 549.402 306.992 549.402 305.344V300.016H547.77V296.608H549.402V293.344H553.506V296.608H556.194V300.016H553.506V305.392C553.506 305.792 553.602 306.08 553.794 306.256C553.986 306.432 554.306 306.52 554.754 306.52H556.218ZM557.688 303.28C557.688 301.904 557.944 300.696 558.456 299.656C558.984 298.616 559.696 297.816 560.592 297.256C561.488 296.696 562.488 296.416 563.592 296.416C564.536 296.416 565.36 296.608 566.064 296.992C566.784 297.376 567.336 297.88 567.72 298.504V296.608H571.824V310H567.72V308.104C567.32 308.728 566.76 309.232 566.04 309.616C565.336 310 564.512 310.192 563.568 310.192C562.48 310.192 561.488 309.912 560.592 309.352C559.696 308.776 558.984 307.968 558.456 306.928C557.944 305.872 557.688 304.656 557.688 303.28ZM567.72 303.304C567.72 302.28 567.432 301.472 566.856 300.88C566.296 300.288 565.608 299.992 564.792 299.992C563.976 299.992 563.28 300.288 562.704 300.88C562.144 301.456 561.864 302.256 561.864 303.28C561.864 304.304 562.144 305.12 562.704 305.728C563.28 306.32 563.976 306.616 564.792 306.616C565.608 306.616 566.296 306.32 566.856 305.728C567.432 305.136 567.72 304.328 567.72 303.304ZM578.897 298.84C579.377 298.104 579.977 297.528 580.697 297.112C581.417 296.68 582.217 296.464 583.097 296.464V300.808H581.969C580.945 300.808 580.177 301.032 579.665 301.48C579.153 301.912 578.897 302.68 578.897 303.784V310H574.793V296.608H578.897V298.84ZM592.522 306.52V310H590.434C588.946 310 587.786 309.64 586.954 308.92C586.122 308.184 585.706 306.992 585.706 305.344V300.016H584.074V296.608H585.706V293.344H589.81V296.608H592.498V300.016H589.81V305.392C589.81 305.792 589.906 306.08 590.098 306.256C590.29 306.432 590.61 306.52 591.058 306.52H592.522ZM608.032 296.608V310H603.928V308.176C603.512 308.768 602.944 309.248 602.224 309.616C601.52 309.968 600.736 310.144 599.872 310.144C598.848 310.144 597.944 309.92 597.16 309.472C596.376 309.008 595.768 308.344 595.336 307.48C594.904 306.616 594.688 305.6 594.688 304.432V296.608H598.768V303.88C598.768 304.776 599 305.472 599.464 305.968C599.928 306.464 600.552 306.712 601.336 306.712C602.136 306.712 602.768 306.464 603.232 305.968C603.696 305.472 603.928 304.776 603.928 303.88V296.608H608.032ZM615.084 298.504C615.484 297.88 616.036 297.376 616.74 296.992C617.444 296.608 618.268 296.416 619.212 296.416C620.316 296.416 621.316 296.696 622.212 297.256C623.108 297.816 623.812 298.616 624.324 299.656C624.852 300.696 625.116 301.904 625.116 303.28C625.116 304.656 624.852 305.872 624.324 306.928C623.812 307.968 623.108 308.776 622.212 309.352C621.316 309.912 620.316 310.192 619.212 310.192C618.284 310.192 617.46 310 616.74 309.616C616.036 309.232 615.484 308.736 615.084 308.128V316.384H610.98V296.608H615.084V298.504ZM620.94 303.28C620.94 302.256 620.652 301.456 620.076 300.88C619.516 300.288 618.82 299.992 617.988 299.992C617.172 299.992 616.476 300.288 615.9 300.88C615.34 301.472 615.06 302.28 615.06 303.304C615.06 304.328 615.34 305.136 615.9 305.728C616.476 306.32 617.172 306.616 617.988 306.616C618.804 306.616 619.5 306.32 620.076 305.728C620.652 305.12 620.94 304.304 620.94 303.28ZM632.717 310.192C631.549 310.192 630.509 309.992 629.597 309.592C628.685 309.192 627.965 308.648 627.437 307.96C626.909 307.256 626.613 306.472 626.549 305.608H630.605C630.653 306.072 630.869 306.448 631.253 306.736C631.637 307.024 632.109 307.168 632.669 307.168C633.181 307.168 633.573 307.072 633.845 306.88C634.133 306.672 634.277 306.408 634.277 306.088C634.277 305.704 634.077 305.424 633.677 305.248C633.277 305.056 632.629 304.848 631.733 304.624C630.773 304.4 629.973 304.168 629.333 303.928C628.693 303.672 628.141 303.28 627.677 302.752C627.213 302.208 626.981 301.48 626.981 300.568C626.981 299.8 627.189 299.104 627.605 298.48C628.037 297.84 628.661 297.336 629.477 296.968C630.309 296.6 631.293 296.416 632.429 296.416C634.109 296.416 635.429 296.832 636.389 297.664C637.365 298.496 637.925 299.6 638.069 300.976H634.277C634.213 300.512 634.005 300.144 633.653 299.872C633.317 299.6 632.869 299.464 632.309 299.464C631.829 299.464 631.461 299.56 631.205 299.752C630.949 299.928 630.821 300.176 630.821 300.496C630.821 300.88 631.021 301.168 631.421 301.36C631.837 301.552 632.477 301.744 633.341 301.936C634.333 302.192 635.141 302.448 635.765 302.704C636.389 302.944 636.933 303.344 637.397 303.904C637.877 304.448 638.125 305.184 638.141 306.112C638.141 306.896 637.917 307.6 637.469 308.224C637.037 308.832 636.405 309.312 635.573 309.664C634.757 310.016 633.805 310.192 632.717 310.192Z" fill="white"/>
<rect width="207" height="84" transform="translate(695.5 260)" fill="#EB9B00"/>
<path d="M743.58 293.152V310H739.476V303.064H733.092V310H728.988V293.152H733.092V299.752H739.476V293.152H743.58ZM758.663 293.152V296.44H754.199V310H750.095V296.44H745.631V293.152H758.663ZM779.802 293.152V310H775.698V299.896L771.93 310H768.618L764.826 299.872V310H760.722V293.152H765.57L770.298 304.816L774.978 293.152H779.802ZM786.858 306.832H792.234V310H782.754V293.152H786.858V306.832ZM812.165 310L810.605 308.488C809.053 309.672 807.197 310.264 805.037 310.264C803.741 310.264 802.613 310.056 801.653 309.64C800.693 309.208 799.949 308.608 799.421 307.84C798.909 307.056 798.653 306.144 798.653 305.104C798.653 304.048 798.933 303.096 799.493 302.248C800.069 301.384 800.925 300.68 802.061 300.136C801.645 299.624 801.349 299.136 801.173 298.672C800.997 298.192 800.909 297.672 800.909 297.112C800.909 296.312 801.117 295.584 801.533 294.928C801.949 294.272 802.549 293.76 803.333 293.392C804.133 293.008 805.077 292.816 806.165 292.816C807.269 292.816 808.205 293.016 808.973 293.416C809.741 293.816 810.317 294.352 810.701 295.024C811.085 295.696 811.261 296.432 811.229 297.232H807.365C807.381 296.8 807.269 296.472 807.029 296.248C806.805 296.008 806.501 295.888 806.117 295.888C805.733 295.888 805.413 296 805.157 296.224C804.901 296.448 804.773 296.736 804.773 297.088C804.773 297.424 804.877 297.776 805.085 298.144C805.309 298.512 805.653 298.936 806.117 299.416L810.221 303.424C810.253 303.344 810.293 303.248 810.341 303.136C810.405 303.024 810.469 302.896 810.533 302.752L811.421 301.24H815.525L814.373 303.328C813.941 304.272 813.445 305.168 812.885 306.016L816.941 310H812.165ZM805.229 306.952C806.301 306.952 807.253 306.648 808.085 306.04L804.341 302.416C803.189 303.008 802.613 303.808 802.613 304.816C802.613 305.424 802.845 305.936 803.309 306.352C803.789 306.752 804.429 306.952 805.229 306.952ZM822.815 301.552C822.815 299.888 823.175 298.408 823.895 297.112C824.615 295.8 825.615 294.784 826.895 294.064C828.191 293.328 829.655 292.96 831.287 292.96C833.287 292.96 834.999 293.488 836.423 294.544C837.847 295.6 838.799 297.04 839.279 298.864H834.767C834.431 298.16 833.951 297.624 833.327 297.256C832.719 296.888 832.023 296.704 831.239 296.704C829.975 296.704 828.951 297.144 828.167 298.024C827.383 298.904 826.991 300.08 826.991 301.552C826.991 303.024 827.383 304.2 828.167 305.08C828.951 305.96 829.975 306.4 831.239 306.4C832.023 306.4 832.719 306.216 833.327 305.848C833.951 305.48 834.431 304.944 834.767 304.24H839.279C838.799 306.064 837.847 307.504 836.423 308.56C834.999 309.6 833.287 310.12 831.287 310.12C829.655 310.12 828.191 309.76 826.895 309.04C825.615 308.304 824.615 307.288 823.895 305.992C823.175 304.696 822.815 303.216 822.815 301.552ZM847.889 310.168C846.657 310.168 845.553 309.968 844.577 309.568C843.601 309.168 842.817 308.576 842.225 307.792C841.649 307.008 841.345 306.064 841.313 304.96H845.681C845.745 305.584 845.961 306.064 846.329 306.4C846.697 306.72 847.177 306.88 847.769 306.88C848.377 306.88 848.857 306.744 849.209 306.472C849.561 306.184 849.737 305.792 849.737 305.296C849.737 304.88 849.593 304.536 849.305 304.264C849.033 303.992 848.689 303.768 848.273 303.592C847.873 303.416 847.297 303.216 846.545 302.992C845.457 302.656 844.569 302.32 843.881 301.984C843.193 301.648 842.601 301.152 842.105 300.496C841.609 299.84 841.361 298.984 841.361 297.928C841.361 296.36 841.929 295.136 843.065 294.256C844.201 293.36 845.681 292.912 847.505 292.912C849.361 292.912 850.857 293.36 851.993 294.256C853.129 295.136 853.737 296.368 853.817 297.952H849.377C849.345 297.408 849.145 296.984 848.777 296.68C848.409 296.36 847.937 296.2 847.361 296.2C846.865 296.2 846.465 296.336 846.161 296.608C845.857 296.864 845.705 297.24 845.705 297.736C845.705 298.28 845.961 298.704 846.473 299.008C846.985 299.312 847.785 299.64 848.873 299.992C849.961 300.36 850.841 300.712 851.513 301.048C852.201 301.384 852.793 301.872 853.289 302.512C853.785 303.152 854.033 303.976 854.033 304.984C854.033 305.944 853.785 306.816 853.289 307.6C852.809 308.384 852.105 309.008 851.177 309.472C850.249 309.936 849.153 310.168 847.889 310.168ZM862.654 310.168C861.422 310.168 860.318 309.968 859.342 309.568C858.366 309.168 857.582 308.576 856.99 307.792C856.414 307.008 856.11 306.064 856.078 304.96H860.446C860.51 305.584 860.726 306.064 861.094 306.4C861.462 306.72 861.942 306.88 862.534 306.88C863.142 306.88 863.622 306.744 863.974 306.472C864.326 306.184 864.502 305.792 864.502 305.296C864.502 304.88 864.358 304.536 864.07 304.264C863.798 303.992 863.454 303.768 863.038 303.592C862.638 303.416 862.062 303.216 861.31 302.992C860.222 302.656 859.334 302.32 858.646 301.984C857.958 301.648 857.366 301.152 856.87 300.496C856.374 299.84 856.126 298.984 856.126 297.928C856.126 296.36 856.694 295.136 857.83 294.256C858.966 293.36 860.446 292.912 862.27 292.912C864.126 292.912 865.622 293.36 866.758 294.256C867.894 295.136 868.502 296.368 868.582 297.952H864.142C864.11 297.408 863.91 296.984 863.542 296.68C863.174 296.36 862.702 296.2 862.126 296.2C861.63 296.2 861.23 296.336 860.926 296.608C860.622 296.864 860.47 297.24 860.47 297.736C860.47 298.28 860.726 298.704 861.238 299.008C861.75 299.312 862.55 299.64 863.638 299.992C864.726 300.36 865.606 300.712 866.278 301.048C866.966 301.384 867.558 301.872 868.054 302.512C868.55 303.152 868.798 303.976 868.798 304.984C868.798 305.944 868.55 306.816 868.054 307.6C867.574 308.384 866.87 309.008 865.942 309.472C865.014 309.936 863.918 310.168 862.654 310.168Z" fill="white"/>
<rect width="126" height="84" transform="translate(926.5 260)" fill="#EB9B00"/>
<path d="M970.548 293.152V304.624C970.548 306.4 970.044 307.768 969.036 308.728C968.044 309.688 966.7 310.168 965.004 310.168C963.228 310.168 961.804 309.664 960.732 308.656C959.66 307.648 959.124 306.216 959.124 304.36H963.204C963.204 305.064 963.348 305.6 963.636 305.968C963.924 306.32 964.34 306.496 964.884 306.496C965.38 306.496 965.764 306.336 966.036 306.016C966.308 305.696 966.444 305.232 966.444 304.624V293.152H970.548ZM973.047 303.28C973.047 301.904 973.303 300.696 973.815 299.656C974.343 298.616 975.055 297.816 975.951 297.256C976.847 296.696 977.847 296.416 978.951 296.416C979.895 296.416 980.719 296.608 981.423 296.992C982.143 297.376 982.695 297.88 983.079 298.504V296.608H987.183V310H983.079V308.104C982.679 308.728 982.119 309.232 981.399 309.616C980.695 310 979.871 310.192 978.927 310.192C977.839 310.192 976.847 309.912 975.951 309.352C975.055 308.776 974.343 307.968 973.815 306.928C973.303 305.872 973.047 304.656 973.047 303.28ZM983.079 303.304C983.079 302.28 982.791 301.472 982.215 300.88C981.655 300.288 980.967 299.992 980.151 299.992C979.335 299.992 978.639 300.288 978.063 300.88C977.503 301.456 977.223 302.256 977.223 303.28C977.223 304.304 977.503 305.12 978.063 305.728C978.639 306.32 979.335 306.616 980.151 306.616C980.967 306.616 981.655 306.32 982.215 305.728C982.791 305.136 983.079 304.328 983.079 303.304ZM996.176 306.16L999.08 296.608H1003.45L998.696 310H993.632L988.88 296.608H993.272L996.176 306.16ZM1004.36 303.28C1004.36 301.904 1004.62 300.696 1005.13 299.656C1005.66 298.616 1006.37 297.816 1007.26 297.256C1008.16 296.696 1009.16 296.416 1010.26 296.416C1011.21 296.416 1012.03 296.608 1012.74 296.992C1013.46 297.376 1014.01 297.88 1014.39 298.504V296.608H1018.5V310H1014.39V308.104C1013.99 308.728 1013.43 309.232 1012.71 309.616C1012.01 310 1011.18 310.192 1010.24 310.192C1009.15 310.192 1008.16 309.912 1007.26 309.352C1006.37 308.776 1005.66 307.968 1005.13 306.928C1004.62 305.872 1004.36 304.656 1004.36 303.28ZM1014.39 303.304C1014.39 302.28 1014.1 301.472 1013.53 300.88C1012.97 300.288 1012.28 299.992 1011.46 299.992C1010.65 299.992 1009.95 300.288 1009.38 300.88C1008.82 301.456 1008.54 302.256 1008.54 303.28C1008.54 304.304 1008.82 305.12 1009.38 305.728C1009.95 306.32 1010.65 306.616 1011.46 306.616C1012.28 306.616 1012.97 306.32 1013.53 305.728C1014.1 305.136 1014.39 304.328 1014.39 303.304Z" fill="white"/>
<rect width="152" height="84" transform="translate(1076.5 260)" fill="#EB9B00"/>
<path d="M1122.83 298.576C1122.83 299.552 1122.6 300.448 1122.16 301.264C1121.71 302.064 1121.02 302.712 1120.09 303.208C1119.16 303.704 1118.01 303.952 1116.64 303.952H1114.09V310H1109.99V293.152H1116.64C1117.98 293.152 1119.12 293.384 1120.04 293.848C1120.97 294.312 1121.67 294.952 1122.13 295.768C1122.6 296.584 1122.83 297.52 1122.83 298.576ZM1116.32 300.688C1117.11 300.688 1117.69 300.504 1118.08 300.136C1118.46 299.768 1118.65 299.248 1118.65 298.576C1118.65 297.904 1118.46 297.384 1118.08 297.016C1117.69 296.648 1117.11 296.464 1116.32 296.464H1114.09V300.688H1116.32ZM1138.64 296.608L1130.24 316.36H1125.83L1128.9 309.544L1123.45 296.608H1128.04L1131.13 304.984L1134.2 296.608H1138.64ZM1147.59 306.52V310H1145.5C1144.02 310 1142.86 309.64 1142.02 308.92C1141.19 308.184 1140.78 306.992 1140.78 305.344V300.016H1139.14V296.608H1140.78V293.344H1144.88V296.608H1147.57V300.016H1144.88V305.392C1144.88 305.792 1144.98 306.08 1145.17 306.256C1145.36 306.432 1145.68 306.52 1146.13 306.52H1147.59ZM1158.11 296.464C1159.65 296.464 1160.88 296.976 1161.81 298C1162.73 299.008 1163.2 300.4 1163.2 302.176V310H1159.12V302.728C1159.12 301.832 1158.89 301.136 1158.42 300.64C1157.96 300.144 1157.33 299.896 1156.55 299.896C1155.77 299.896 1155.14 300.144 1154.68 300.64C1154.21 301.136 1153.98 301.832 1153.98 302.728V310H1149.88V292.24H1153.98V298.408C1154.4 297.816 1154.97 297.344 1155.69 296.992C1156.41 296.64 1157.21 296.464 1158.11 296.464ZM1172.15 310.192C1170.83 310.192 1169.65 309.912 1168.59 309.352C1167.55 308.792 1166.73 307.992 1166.12 306.952C1165.53 305.912 1165.23 304.696 1165.23 303.304C1165.23 301.928 1165.54 300.72 1166.15 299.68C1166.75 298.624 1167.59 297.816 1168.64 297.256C1169.7 296.696 1170.88 296.416 1172.19 296.416C1173.51 296.416 1174.69 296.696 1175.75 297.256C1176.8 297.816 1177.63 298.624 1178.24 299.68C1178.85 300.72 1179.15 301.928 1179.15 303.304C1179.15 304.68 1178.84 305.896 1178.22 306.952C1177.61 307.992 1176.77 308.792 1175.7 309.352C1174.64 309.912 1173.46 310.192 1172.15 310.192ZM1172.15 306.64C1172.93 306.64 1173.59 306.352 1174.14 305.776C1174.7 305.2 1174.98 304.376 1174.98 303.304C1174.98 302.232 1174.71 301.408 1174.16 300.832C1173.63 300.256 1172.98 299.968 1172.19 299.968C1171.39 299.968 1170.73 300.256 1170.2 300.832C1169.67 301.392 1169.41 302.216 1169.41 303.304C1169.41 304.376 1169.67 305.2 1170.18 305.776C1170.71 306.352 1171.36 306.64 1172.15 306.64ZM1189.49 296.464C1191.06 296.464 1192.31 296.976 1193.24 298C1194.18 299.008 1194.65 300.4 1194.65 302.176V310H1190.57V302.728C1190.57 301.832 1190.34 301.136 1189.88 300.64C1189.41 300.144 1188.79 299.896 1188 299.896C1187.22 299.896 1186.6 300.144 1186.13 300.64C1185.67 301.136 1185.44 301.832 1185.44 302.728V310H1181.33V296.608H1185.44V298.384C1185.85 297.792 1186.41 297.328 1187.12 296.992C1187.82 296.64 1188.61 296.464 1189.49 296.464Z" fill="white"/>
<defs>
<linearGradient id="paint0_linear_113_1694" x1="719.671" y1="-50.1602" x2="2677.64" y2="1024.08" gradientUnits="userSpaceOnUse">
<stop stop-color="#002F52"/>
<stop offset="1" stop-color="#326589"/>
</linearGradient>
</defs>
</svg>
