<svg width="38" height="38" viewBox="0 0 38 38" fill="none" xmlns="http://www.w3.org/2000/svg">
<g clip-path="url(#clip0_145565_275)">
<path d="M28.5002 9.49984H25.3335C25.3335 6.00067 22.4993 3.1665 19.0002 3.1665C15.501 3.1665 12.6668 6.00067 12.6668 9.49984H9.50016C7.7585 9.49984 6.3335 10.9248 6.3335 12.6665V31.6665C6.3335 33.4082 7.7585 34.8332 9.50016 34.8332H28.5002C30.2418 34.8332 31.6668 33.4082 31.6668 31.6665V12.6665C31.6668 10.9248 30.2418 9.49984 28.5002 9.49984ZM19.0002 6.33317C20.7418 6.33317 22.1668 7.75817 22.1668 9.49984H15.8335C15.8335 7.75817 17.2585 6.33317 19.0002 6.33317ZM28.5002 31.6665H9.50016V12.6665H12.6668V15.8332C12.6668 16.704 13.3793 17.4165 14.2502 17.4165C15.121 17.4165 15.8335 16.704 15.8335 15.8332V12.6665H22.1668V15.8332C22.1668 16.704 22.8793 17.4165 23.7502 17.4165C24.621 17.4165 25.3335 16.704 25.3335 15.8332V12.6665H28.5002V31.6665Z" fill="#002F52"/>
</g>
<defs>
<clipPath id="clip0_145565_275">
<rect width="38" height="38" fill="white"/>
</clipPath>
</defs>
</svg>
